<svg width="666" height="666" viewBox="0 0 666 666" fill="none" xmlns="http://www.w3.org/2000/svg">
<rect width="666" height="666" fill="#5B5B62"/>
<rect width="665" height="666" fill="#5B5B62"/>
<rect width="666" height="110" fill="black" fill-opacity="0.11"/>
<rect x="14" y="232" width="54" height="54" rx="21" fill="#D9D9D9"/>
<rect x="84" y="263" width="142" height="55" rx="19" fill="#D9D9D9"/>
<path d="M76.8115 265.666C76.3418 264.89 77.0645 263.94 77.9376 264.185L93.6572 268.606C94.3329 268.796 94.6077 269.604 94.1877 270.167L86.9842 279.811C86.5597 280.379 85.695 280.337 85.3276 279.731L76.8115 265.666Z" fill="#D9D9D9"/>
<rect width="274" height="55" rx="19" transform="matrix(-1 0 0 1 649 150)" fill="#D9D9D9"/>
<path d="M653.659 152.763C653.97 151.928 653.115 151.135 652.305 151.506L643.411 155.583C642.909 155.813 642.688 156.407 642.918 156.909L646.994 165.805C647.365 166.615 648.531 166.572 648.841 165.736L653.659 152.763Z" fill="#D9D9D9"/>
<path d="M393.139 168.497H395.048V177.283H393.139V168.497ZM393.139 176.685H394.795C397.762 176.685 400.867 176.478 404.271 175.788L404.501 177.352C401.005 178.088 397.877 178.295 394.795 178.295H393.139V176.685ZM406.364 167.025H408.273V182.044H406.364V167.025ZM407.675 173.166H411.355V174.799H407.675V173.166ZM395.393 185.77H409.009V187.334H395.393V185.77ZM395.393 180.572H397.302V186.506H395.393V180.572ZM420.479 167.991H422.388V176.317H420.479V167.991ZM420.479 175.282H422.089C425.401 175.282 428.184 175.098 431.289 174.477L431.542 176.064C428.322 176.708 425.47 176.869 422.089 176.869H420.479V175.282ZM428.575 170.452H434.923V172.016H428.575V170.452ZM434.463 167.002H436.372V177.743H434.463V167.002ZM422.986 178.709H436.372V183.723H424.941V186.805H423.055V182.274H434.486V180.273H422.986V178.709ZM423.055 185.977H437.108V187.518H423.055V185.977ZM453.201 167.968C456.306 167.968 458.514 169.693 458.514 172.246C458.514 174.776 456.306 176.547 453.201 176.547C450.119 176.547 447.911 174.776 447.911 172.246C447.911 169.693 450.119 167.968 453.201 167.968ZM453.201 169.555C451.177 169.555 449.728 170.659 449.728 172.246C449.728 173.856 451.177 174.937 453.201 174.937C455.225 174.937 456.674 173.856 456.674 172.246C456.674 170.659 455.225 169.555 453.201 169.555ZM452.35 178.847H454.259V187.15H452.35V178.847ZM461.55 167.002H463.436V187.817H461.55V167.002ZM446.623 179.882L446.37 178.272C450.234 178.272 455.501 178.226 460.078 177.536L460.216 178.962C455.524 179.813 450.418 179.882 446.623 179.882ZM467.528 170.544H477.832V172.108H467.528V170.544ZM472.68 173.488C475.279 173.488 477.165 175.443 477.165 178.249C477.165 181.032 475.279 182.987 472.68 182.987C470.104 182.987 468.218 181.032 468.218 178.249C468.218 175.443 470.104 173.488 472.68 173.488ZM472.68 175.121C471.093 175.121 469.943 176.409 469.943 178.249C469.943 180.089 471.093 181.377 472.68 181.377C474.29 181.377 475.463 180.089 475.463 178.249C475.463 176.409 474.29 175.121 472.68 175.121ZM483.329 167.002H485.169V187.794H483.329V167.002ZM480.017 175.742H483.95V177.329H480.017V175.742ZM478.89 167.462H480.684V186.782H478.89V167.462ZM471.76 167.6H473.646V171.51H471.76V167.6ZM499.105 174.04H504.901V175.604H499.105V174.04ZM494.091 168.796H495.655V172.499C495.655 177.168 493.194 181.63 489.905 183.401L488.686 181.883C491.745 180.365 494.091 176.363 494.091 172.499V168.796ZM494.459 168.796H496V172.499C496 176.294 498.346 180.066 501.359 181.492L500.232 183.033C496.874 181.331 494.459 177.053 494.459 172.499V168.796ZM503.958 166.979H505.844V187.817H503.958V166.979ZM524.306 177.927H526.192V181.561H524.306V177.927ZM524.007 168.658H525.709V169.279C525.709 172.637 521.891 174.937 517.59 175.466L516.9 173.971C520.626 173.534 524.007 171.648 524.007 169.279V168.658ZM524.812 168.658H526.491V169.279C526.491 171.648 529.872 173.557 533.598 173.971L532.908 175.466C528.607 174.937 524.812 172.637 524.812 169.279V168.658ZM517.567 167.853H532.954V169.394H517.567V167.853ZM515.842 176.777H534.702V178.341H515.842V176.777ZM517.935 181.055H532.31V187.794H530.401V182.596H517.935V181.055ZM546.407 167.347C550.984 167.347 553.721 168.635 553.721 170.958C553.721 173.281 550.984 174.569 546.407 174.569C541.807 174.569 539.093 173.281 539.093 170.958C539.093 168.635 541.807 167.347 546.407 167.347ZM546.407 168.796C543.003 168.796 541.048 169.578 541.048 170.958C541.048 172.338 543.003 173.12 546.407 173.12C549.788 173.12 551.743 172.338 551.743 170.958C551.743 169.578 549.788 168.796 546.407 168.796ZM537 175.949H555.791V177.49H537V175.949ZM539.277 179.261H553.399V183.953H541.209V186.483H539.323V182.573H551.513V180.733H539.277V179.261ZM539.323 186.069H554.02V187.564H539.323V186.069ZM572.551 167.738H574.23V168.888C574.23 172.867 570.182 175.719 565.858 176.455L565.099 174.914C568.894 174.339 572.551 171.855 572.551 168.888V167.738ZM572.896 167.738H574.552V168.888C574.552 171.786 578.255 174.339 582.004 174.914L581.245 176.455C576.967 175.719 572.896 172.821 572.896 168.888V167.738ZM572.551 179.882H574.437V187.794H572.551V179.882ZM564.156 178.709H582.947V180.296H564.156V178.709ZM596.464 179.79H597.936V180.917C597.936 183.631 596.234 186.368 593.244 187.518L592.278 186.092C594.9 185.149 596.464 182.918 596.464 180.917V179.79ZM596.878 179.79H598.304V180.917C598.304 183.01 599.546 185.241 602.03 186.253L601.225 187.702C598.235 186.529 596.878 183.677 596.878 180.917V179.79ZM604.146 179.79H605.572V180.917C605.572 183.355 604.192 186.437 601.225 187.702L600.42 186.253C602.881 185.126 604.146 182.711 604.146 180.917V179.79ZM604.537 179.79H606.009V180.917C606.009 183.056 607.55 185.195 610.195 186.092L609.229 187.518C606.193 186.414 604.537 183.792 604.537 180.917V179.79ZM606.4 167.025H608.332V178.893H606.4V167.025ZM597.177 168.221C600.328 168.221 602.582 170.199 602.582 173.074C602.582 175.949 600.328 177.904 597.177 177.904C594.026 177.904 591.749 175.949 591.749 173.074C591.749 170.199 594.026 168.221 597.177 168.221ZM597.177 169.808C595.107 169.808 593.612 171.142 593.612 173.074C593.612 175.006 595.107 176.317 597.177 176.317C599.247 176.317 600.742 175.006 600.742 173.074C600.742 171.142 599.247 169.808 597.177 169.808ZM617.99 168.589C621.003 168.589 623.165 171.418 623.165 175.834C623.165 180.273 621.003 183.102 617.99 183.102C614.954 183.102 612.815 180.273 612.815 175.834C612.815 171.418 614.954 168.589 617.99 168.589ZM617.99 170.314C615.989 170.314 614.632 172.476 614.632 175.834C614.632 179.215 615.989 181.423 617.99 181.423C619.991 181.423 621.348 179.215 621.348 175.834C621.348 172.476 619.991 170.314 617.99 170.314ZM627.673 166.979H629.559V187.817H627.673V166.979ZM622.544 174.914H628.501V176.478H622.544V174.914Z" fill="black"/>
<path d="M110.322 284.648H123.133V296.056H121.224V286.212H110.322V284.648ZM121.868 289.639V291.157L110.138 291.893L109.862 290.168L121.868 289.639ZM128.697 297.643C128.697 297.045 128.85 296.623 129.157 296.378C129.463 296.133 129.831 296.01 130.261 296.01C130.705 296.01 131.081 296.133 131.388 296.378C131.694 296.623 131.848 297.045 131.848 297.643C131.848 298.241 131.694 298.67 131.388 298.931C131.081 299.192 130.705 299.322 130.261 299.322C129.831 299.322 129.463 299.192 129.157 298.931C128.85 298.67 128.697 298.241 128.697 297.643ZM137.769 284.648H150.58V296.056H148.671V286.212H137.769V284.648ZM149.315 289.639V291.157L137.585 291.893L137.309 290.168L149.315 289.639ZM156.144 297.643C156.144 297.045 156.297 296.623 156.604 296.378C156.911 296.133 157.279 296.01 157.708 296.01C158.153 296.01 158.528 296.133 158.835 296.378C159.142 296.623 159.295 297.045 159.295 297.643C159.295 298.241 159.142 298.67 158.835 298.931C158.528 299.192 158.153 299.322 157.708 299.322C157.279 299.322 156.911 299.192 156.604 298.931C156.297 298.67 156.144 298.241 156.144 297.643ZM165.216 284.648H178.027V296.056H176.118V286.212H165.216V284.648ZM176.762 289.639V291.157L165.032 291.893L164.756 290.168L176.762 289.639ZM192.349 284.648H205.16V296.056H203.251V286.212H192.349V284.648ZM203.895 289.639V291.157L192.165 291.893L191.889 290.168L203.895 289.639Z" fill="black"/>
</svg>
