<svg width="666" height="666" viewBox="0 0 666 666" fill="none" xmlns="http://www.w3.org/2000/svg">
<rect width="666" height="666" fill="#5B5B62"/>
<rect width="665" height="666" fill="#5B5B62"/>
<rect width="666" height="110" fill="black" fill-opacity="0.11"/>
<rect x="14" y="232" width="54" height="54" rx="21" fill="#D9D9D9"/>
<rect x="84" y="263" width="161" height="55" rx="19" fill="#D9D9D9"/>
<path d="M76.8115 265.666C76.3418 264.89 77.0645 263.94 77.9376 264.185L93.6572 268.606C94.3329 268.796 94.6077 269.604 94.1877 270.167L86.9842 279.811C86.5597 280.379 85.695 280.337 85.3276 279.731L76.8115 265.666Z" fill="#D9D9D9"/>
<rect width="274" height="55" rx="19" transform="matrix(-1 0 0 1 649 150)" fill="#D9D9D9"/>
<path d="M653.659 152.763C653.97 151.928 653.115 151.135 652.305 151.506L643.411 155.583C642.909 155.813 642.688 156.407 642.918 156.909L646.994 165.805C647.365 166.615 648.531 166.572 648.841 165.736L653.659 152.763Z" fill="#D9D9D9"/>
<path d="M393.139 168.497H395.048V177.283H393.139V168.497ZM393.139 176.685H394.795C397.762 176.685 400.867 176.478 404.271 175.788L404.501 177.352C401.005 178.088 397.877 178.295 394.795 178.295H393.139V176.685ZM406.364 167.025H408.273V182.044H406.364V167.025ZM407.675 173.166H411.355V174.799H407.675V173.166ZM395.393 185.77H409.009V187.334H395.393V185.77ZM395.393 180.572H397.302V186.506H395.393V180.572ZM420.479 167.991H422.388V176.317H420.479V167.991ZM420.479 175.282H422.089C425.401 175.282 428.184 175.098 431.289 174.477L431.542 176.064C428.322 176.708 425.47 176.869 422.089 176.869H420.479V175.282ZM428.575 170.452H434.923V172.016H428.575V170.452ZM434.463 167.002H436.372V177.743H434.463V167.002ZM422.986 178.709H436.372V183.723H424.941V186.805H423.055V182.274H434.486V180.273H422.986V178.709ZM423.055 185.977H437.108V187.518H423.055V185.977ZM453.201 167.968C456.306 167.968 458.514 169.693 458.514 172.246C458.514 174.776 456.306 176.547 453.201 176.547C450.119 176.547 447.911 174.776 447.911 172.246C447.911 169.693 450.119 167.968 453.201 167.968ZM453.201 169.555C451.177 169.555 449.728 170.659 449.728 172.246C449.728 173.856 451.177 174.937 453.201 174.937C455.225 174.937 456.674 173.856 456.674 172.246C456.674 170.659 455.225 169.555 453.201 169.555ZM452.35 178.847H454.259V187.15H452.35V178.847ZM461.55 167.002H463.436V187.817H461.55V167.002ZM446.623 179.882L446.37 178.272C450.234 178.272 455.501 178.226 460.078 177.536L460.216 178.962C455.524 179.813 450.418 179.882 446.623 179.882ZM467.528 170.544H477.832V172.108H467.528V170.544ZM472.68 173.488C475.279 173.488 477.165 175.443 477.165 178.249C477.165 181.032 475.279 182.987 472.68 182.987C470.104 182.987 468.218 181.032 468.218 178.249C468.218 175.443 470.104 173.488 472.68 173.488ZM472.68 175.121C471.093 175.121 469.943 176.409 469.943 178.249C469.943 180.089 471.093 181.377 472.68 181.377C474.29 181.377 475.463 180.089 475.463 178.249C475.463 176.409 474.29 175.121 472.68 175.121ZM483.329 167.002H485.169V187.794H483.329V167.002ZM480.017 175.742H483.95V177.329H480.017V175.742ZM478.89 167.462H480.684V186.782H478.89V167.462ZM471.76 167.6H473.646V171.51H471.76V167.6ZM499.105 174.04H504.901V175.604H499.105V174.04ZM494.091 168.796H495.655V172.499C495.655 177.168 493.194 181.63 489.905 183.401L488.686 181.883C491.745 180.365 494.091 176.363 494.091 172.499V168.796ZM494.459 168.796H496V172.499C496 176.294 498.346 180.066 501.359 181.492L500.232 183.033C496.874 181.331 494.459 177.053 494.459 172.499V168.796ZM503.958 166.979H505.844V187.817H503.958V166.979ZM524.306 177.927H526.192V181.561H524.306V177.927ZM524.007 168.658H525.709V169.279C525.709 172.637 521.891 174.937 517.59 175.466L516.9 173.971C520.626 173.534 524.007 171.648 524.007 169.279V168.658ZM524.812 168.658H526.491V169.279C526.491 171.648 529.872 173.557 533.598 173.971L532.908 175.466C528.607 174.937 524.812 172.637 524.812 169.279V168.658ZM517.567 167.853H532.954V169.394H517.567V167.853ZM515.842 176.777H534.702V178.341H515.842V176.777ZM517.935 181.055H532.31V187.794H530.401V182.596H517.935V181.055ZM546.407 167.347C550.984 167.347 553.721 168.635 553.721 170.958C553.721 173.281 550.984 174.569 546.407 174.569C541.807 174.569 539.093 173.281 539.093 170.958C539.093 168.635 541.807 167.347 546.407 167.347ZM546.407 168.796C543.003 168.796 541.048 169.578 541.048 170.958C541.048 172.338 543.003 173.12 546.407 173.12C549.788 173.12 551.743 172.338 551.743 170.958C551.743 169.578 549.788 168.796 546.407 168.796ZM537 175.949H555.791V177.49H537V175.949ZM539.277 179.261H553.399V183.953H541.209V186.483H539.323V182.573H551.513V180.733H539.277V179.261ZM539.323 186.069H554.02V187.564H539.323V186.069ZM572.551 167.738H574.23V168.888C574.23 172.867 570.182 175.719 565.858 176.455L565.099 174.914C568.894 174.339 572.551 171.855 572.551 168.888V167.738ZM572.896 167.738H574.552V168.888C574.552 171.786 578.255 174.339 582.004 174.914L581.245 176.455C576.967 175.719 572.896 172.821 572.896 168.888V167.738ZM572.551 179.882H574.437V187.794H572.551V179.882ZM564.156 178.709H582.947V180.296H564.156V178.709ZM596.464 179.79H597.936V180.917C597.936 183.631 596.234 186.368 593.244 187.518L592.278 186.092C594.9 185.149 596.464 182.918 596.464 180.917V179.79ZM596.878 179.79H598.304V180.917C598.304 183.01 599.546 185.241 602.03 186.253L601.225 187.702C598.235 186.529 596.878 183.677 596.878 180.917V179.79ZM604.146 179.79H605.572V180.917C605.572 183.355 604.192 186.437 601.225 187.702L600.42 186.253C602.881 185.126 604.146 182.711 604.146 180.917V179.79ZM604.537 179.79H606.009V180.917C606.009 183.056 607.55 185.195 610.195 186.092L609.229 187.518C606.193 186.414 604.537 183.792 604.537 180.917V179.79ZM606.4 167.025H608.332V178.893H606.4V167.025ZM597.177 168.221C600.328 168.221 602.582 170.199 602.582 173.074C602.582 175.949 600.328 177.904 597.177 177.904C594.026 177.904 591.749 175.949 591.749 173.074C591.749 170.199 594.026 168.221 597.177 168.221ZM597.177 169.808C595.107 169.808 593.612 171.142 593.612 173.074C593.612 175.006 595.107 176.317 597.177 176.317C599.247 176.317 600.742 175.006 600.742 173.074C600.742 171.142 599.247 169.808 597.177 169.808ZM617.99 168.589C621.003 168.589 623.165 171.418 623.165 175.834C623.165 180.273 621.003 183.102 617.99 183.102C614.954 183.102 612.815 180.273 612.815 175.834C612.815 171.418 614.954 168.589 617.99 168.589ZM617.99 170.314C615.989 170.314 614.632 172.476 614.632 175.834C614.632 179.215 615.989 181.423 617.99 181.423C619.991 181.423 621.348 179.215 621.348 175.834C621.348 172.476 619.991 170.314 617.99 170.314ZM627.673 166.979H629.559V187.817H627.673V166.979ZM622.544 174.914H628.501V176.478H622.544V174.914Z" fill="black"/>
<path d="M107.568 291.755H109.477V296.93H107.568V291.755ZM108.534 281.359C112.927 281.359 116.078 283.498 116.078 286.81C116.078 290.122 112.927 292.261 108.534 292.261C104.141 292.261 100.967 290.122 100.967 286.81C100.967 283.498 104.141 281.359 108.534 281.359ZM108.534 282.877C105.222 282.877 102.807 284.441 102.807 286.81C102.807 289.179 105.222 290.743 108.534 290.743C111.823 290.743 114.238 289.179 114.238 286.81C114.238 284.441 111.823 282.877 108.534 282.877ZM99.15 296.562H117.987V298.149H99.15V296.562ZM120.722 297.643C120.722 297.045 120.876 296.623 121.182 296.378C121.489 296.133 121.857 296.01 122.286 296.01C122.731 296.01 123.107 296.133 123.413 296.378C123.72 296.623 123.873 297.045 123.873 297.643C123.873 298.241 123.72 298.67 123.413 298.931C123.107 299.192 122.731 299.322 122.286 299.322C121.857 299.322 121.489 299.192 121.182 298.931C120.876 298.67 120.722 298.241 120.722 297.643ZM127.011 297.643C127.011 297.045 127.165 296.623 127.471 296.378C127.778 296.133 128.146 296.01 128.575 296.01C129.02 296.01 129.396 296.133 129.702 296.378C130.009 296.623 130.162 297.045 130.162 297.643C130.162 298.241 130.009 298.67 129.702 298.931C129.396 299.192 129.02 299.322 128.575 299.322C128.146 299.322 127.778 299.192 127.471 298.931C127.165 298.67 127.011 298.241 127.011 297.643ZM133.3 297.643C133.3 297.045 133.454 296.623 133.76 296.378C134.067 296.133 134.435 296.01 134.864 296.01C135.309 296.01 135.685 296.133 135.991 296.378C136.298 296.623 136.451 297.045 136.451 297.643C136.451 298.241 136.298 298.67 135.991 298.931C135.685 299.192 135.309 299.322 134.864 299.322C134.435 299.322 134.067 299.192 133.76 298.931C133.454 298.67 133.3 298.241 133.3 297.643ZM150.647 282.969H152.188V286.35C152.188 290.743 149.543 295.159 146.231 296.792L145.127 295.274C148.14 293.848 150.647 289.938 150.647 286.35V282.969ZM151.015 282.969H152.556V286.35C152.556 289.869 155.063 293.457 158.122 294.768L157.041 296.286C153.683 294.722 151.015 290.674 151.015 286.35V282.969ZM145.817 282.118H157.432V283.728H145.817V282.118ZM160.238 280.002H162.147V300.794H160.238V280.002ZM171.483 288.512H173.369V292.307H171.483V288.512ZM177.992 288.512H179.901V292.307H177.992V288.512ZM174.45 281.75H176.152V282.371C176.152 285.89 172.403 288.374 168.148 289.018L167.435 287.477C171.115 286.971 174.45 284.924 174.45 282.371V281.75ZM175.255 281.75H176.934V282.371C176.934 284.901 180.292 286.971 183.972 287.477L183.236 289.018C179.004 288.374 175.255 285.867 175.255 282.371V281.75ZM168.01 280.968H183.397V282.509H168.01V280.968ZM168.723 298.77H183.006V300.334H168.723V298.77ZM168.723 294.492H170.632V299.414H168.723V294.492ZM166.285 291.272H185.145V292.813H166.285V291.272ZM202.554 279.979H204.463V300.817H202.554V279.979ZM193.492 281.589C196.574 281.589 198.782 284.418 198.782 288.834C198.782 293.273 196.574 296.102 193.492 296.102C190.433 296.102 188.225 293.273 188.225 288.834C188.225 284.418 190.433 281.589 193.492 281.589ZM193.492 283.314C191.468 283.314 190.042 285.476 190.042 288.834C190.042 292.215 191.468 294.423 193.492 294.423C195.539 294.423 196.942 292.215 196.942 288.834C196.942 285.476 195.539 283.314 193.492 283.314ZM222.862 280.002H224.771V292.353H222.862V280.002ZM224.219 285.407H227.83V286.994H224.219V285.407ZM218.124 292.79C222.333 292.79 224.955 294.285 224.955 296.792C224.955 299.299 222.333 300.771 218.124 300.771C213.915 300.771 211.293 299.299 211.293 296.792C211.293 294.285 213.915 292.79 218.124 292.79ZM218.124 294.354C215.042 294.354 213.156 295.228 213.156 296.792C213.156 298.31 215.042 299.207 218.124 299.207C221.206 299.207 223.092 298.31 223.092 296.792C223.092 295.228 221.206 294.354 218.124 294.354ZM209.545 289.156H211.155C215.456 289.156 217.871 289.018 220.654 288.443L220.884 290.007C218.009 290.582 215.548 290.72 211.155 290.72H209.545V289.156ZM209.545 281.589H218.722V283.153H211.431V290.168H209.545V281.589Z" fill="black"/>
</svg>
