<svg width="666" height="666" viewBox="0 0 666 666" fill="none" xmlns="http://www.w3.org/2000/svg">
<rect width="666" height="666" fill="#5B5B62"/>
<rect width="665" height="666" fill="#5B5B62"/>
<rect width="666" height="110" fill="black" fill-opacity="0.11"/>
<rect x="14" y="232" width="54" height="54" rx="21" fill="#D9D9D9"/>
<rect x="84" y="263" width="276" height="55" rx="19" fill="#D9D9D9"/>
<path d="M76.8115 265.666C76.3418 264.89 77.0645 263.94 77.9376 264.185L93.6572 268.606C94.3329 268.796 94.6077 269.604 94.1877 270.167L86.9842 279.811C86.5597 280.379 85.695 280.337 85.3276 279.731L76.8115 265.666Z" fill="#D9D9D9"/>
<rect width="274" height="55" rx="19" transform="matrix(-1 0 0 1 649 150)" fill="#D9D9D9"/>
<path d="M653.659 152.763C653.97 151.928 653.115 151.135 652.305 151.506L643.411 155.583C642.909 155.813 642.688 156.407 642.918 156.909L646.994 165.805C647.365 166.615 648.531 166.572 648.841 165.736L653.659 152.763Z" fill="#D9D9D9"/>
<path d="M393.139 168.497H395.048V177.283H393.139V168.497ZM393.139 176.685H394.795C397.762 176.685 400.867 176.478 404.271 175.788L404.501 177.352C401.005 178.088 397.877 178.295 394.795 178.295H393.139V176.685ZM406.364 167.025H408.273V182.044H406.364V167.025ZM407.675 173.166H411.355V174.799H407.675V173.166ZM395.393 185.77H409.009V187.334H395.393V185.77ZM395.393 180.572H397.302V186.506H395.393V180.572ZM420.479 167.991H422.388V176.317H420.479V167.991ZM420.479 175.282H422.089C425.401 175.282 428.184 175.098 431.289 174.477L431.542 176.064C428.322 176.708 425.47 176.869 422.089 176.869H420.479V175.282ZM428.575 170.452H434.923V172.016H428.575V170.452ZM434.463 167.002H436.372V177.743H434.463V167.002ZM422.986 178.709H436.372V183.723H424.941V186.805H423.055V182.274H434.486V180.273H422.986V178.709ZM423.055 185.977H437.108V187.518H423.055V185.977ZM453.201 167.968C456.306 167.968 458.514 169.693 458.514 172.246C458.514 174.776 456.306 176.547 453.201 176.547C450.119 176.547 447.911 174.776 447.911 172.246C447.911 169.693 450.119 167.968 453.201 167.968ZM453.201 169.555C451.177 169.555 449.728 170.659 449.728 172.246C449.728 173.856 451.177 174.937 453.201 174.937C455.225 174.937 456.674 173.856 456.674 172.246C456.674 170.659 455.225 169.555 453.201 169.555ZM452.35 178.847H454.259V187.15H452.35V178.847ZM461.55 167.002H463.436V187.817H461.55V167.002ZM446.623 179.882L446.37 178.272C450.234 178.272 455.501 178.226 460.078 177.536L460.216 178.962C455.524 179.813 450.418 179.882 446.623 179.882ZM467.528 170.544H477.832V172.108H467.528V170.544ZM472.68 173.488C475.279 173.488 477.165 175.443 477.165 178.249C477.165 181.032 475.279 182.987 472.68 182.987C470.104 182.987 468.218 181.032 468.218 178.249C468.218 175.443 470.104 173.488 472.68 173.488ZM472.68 175.121C471.093 175.121 469.943 176.409 469.943 178.249C469.943 180.089 471.093 181.377 472.68 181.377C474.29 181.377 475.463 180.089 475.463 178.249C475.463 176.409 474.29 175.121 472.68 175.121ZM483.329 167.002H485.169V187.794H483.329V167.002ZM480.017 175.742H483.95V177.329H480.017V175.742ZM478.89 167.462H480.684V186.782H478.89V167.462ZM471.76 167.6H473.646V171.51H471.76V167.6ZM499.105 174.04H504.901V175.604H499.105V174.04ZM494.091 168.796H495.655V172.499C495.655 177.168 493.194 181.63 489.905 183.401L488.686 181.883C491.745 180.365 494.091 176.363 494.091 172.499V168.796ZM494.459 168.796H496V172.499C496 176.294 498.346 180.066 501.359 181.492L500.232 183.033C496.874 181.331 494.459 177.053 494.459 172.499V168.796ZM503.958 166.979H505.844V187.817H503.958V166.979ZM524.306 177.927H526.192V181.561H524.306V177.927ZM524.007 168.658H525.709V169.279C525.709 172.637 521.891 174.937 517.59 175.466L516.9 173.971C520.626 173.534 524.007 171.648 524.007 169.279V168.658ZM524.812 168.658H526.491V169.279C526.491 171.648 529.872 173.557 533.598 173.971L532.908 175.466C528.607 174.937 524.812 172.637 524.812 169.279V168.658ZM517.567 167.853H532.954V169.394H517.567V167.853ZM515.842 176.777H534.702V178.341H515.842V176.777ZM517.935 181.055H532.31V187.794H530.401V182.596H517.935V181.055ZM546.407 167.347C550.984 167.347 553.721 168.635 553.721 170.958C553.721 173.281 550.984 174.569 546.407 174.569C541.807 174.569 539.093 173.281 539.093 170.958C539.093 168.635 541.807 167.347 546.407 167.347ZM546.407 168.796C543.003 168.796 541.048 169.578 541.048 170.958C541.048 172.338 543.003 173.12 546.407 173.12C549.788 173.12 551.743 172.338 551.743 170.958C551.743 169.578 549.788 168.796 546.407 168.796ZM537 175.949H555.791V177.49H537V175.949ZM539.277 179.261H553.399V183.953H541.209V186.483H539.323V182.573H551.513V180.733H539.277V179.261ZM539.323 186.069H554.02V187.564H539.323V186.069ZM572.551 167.738H574.23V168.888C574.23 172.867 570.182 175.719 565.858 176.455L565.099 174.914C568.894 174.339 572.551 171.855 572.551 168.888V167.738ZM572.896 167.738H574.552V168.888C574.552 171.786 578.255 174.339 582.004 174.914L581.245 176.455C576.967 175.719 572.896 172.821 572.896 168.888V167.738ZM572.551 179.882H574.437V187.794H572.551V179.882ZM564.156 178.709H582.947V180.296H564.156V178.709ZM596.464 179.79H597.936V180.917C597.936 183.631 596.234 186.368 593.244 187.518L592.278 186.092C594.9 185.149 596.464 182.918 596.464 180.917V179.79ZM596.878 179.79H598.304V180.917C598.304 183.01 599.546 185.241 602.03 186.253L601.225 187.702C598.235 186.529 596.878 183.677 596.878 180.917V179.79ZM604.146 179.79H605.572V180.917C605.572 183.355 604.192 186.437 601.225 187.702L600.42 186.253C602.881 185.126 604.146 182.711 604.146 180.917V179.79ZM604.537 179.79H606.009V180.917C606.009 183.056 607.55 185.195 610.195 186.092L609.229 187.518C606.193 186.414 604.537 183.792 604.537 180.917V179.79ZM606.4 167.025H608.332V178.893H606.4V167.025ZM597.177 168.221C600.328 168.221 602.582 170.199 602.582 173.074C602.582 175.949 600.328 177.904 597.177 177.904C594.026 177.904 591.749 175.949 591.749 173.074C591.749 170.199 594.026 168.221 597.177 168.221ZM597.177 169.808C595.107 169.808 593.612 171.142 593.612 173.074C593.612 175.006 595.107 176.317 597.177 176.317C599.247 176.317 600.742 175.006 600.742 173.074C600.742 171.142 599.247 169.808 597.177 169.808ZM617.99 168.589C621.003 168.589 623.165 171.418 623.165 175.834C623.165 180.273 621.003 183.102 617.99 183.102C614.954 183.102 612.815 180.273 612.815 175.834C612.815 171.418 614.954 168.589 617.99 168.589ZM617.99 170.314C615.989 170.314 614.632 172.476 614.632 175.834C614.632 179.215 615.989 181.423 617.99 181.423C619.991 181.423 621.348 179.215 621.348 175.834C621.348 172.476 619.991 170.314 617.99 170.314ZM627.673 166.979H629.559V187.817H627.673V166.979ZM622.544 174.914H628.501V176.478H622.544V174.914Z" fill="black"/>
<path d="M113.364 279.002H115.273V289.49H113.364V279.002ZM114.744 283.303H118.355V284.89H114.744V283.303ZM100.139 279.899H102.048V287.88H100.139V279.899ZM100.139 286.868H101.772C104.739 286.868 107.844 286.661 111.225 285.971L111.455 287.558C107.959 288.271 104.854 288.478 101.772 288.478H100.139V286.868ZM102.071 290.479H115.273V295.608H104.003V298.759H102.117V294.136H113.387V292.02H102.071V290.479ZM102.117 297.977H116.032V299.518H102.117V297.977ZM133.068 279.968C136.173 279.968 138.381 281.693 138.381 284.246C138.381 286.776 136.173 288.547 133.068 288.547C129.986 288.547 127.778 286.776 127.778 284.246C127.778 281.693 129.986 279.968 133.068 279.968ZM133.068 281.555C131.044 281.555 129.595 282.659 129.595 284.246C129.595 285.856 131.044 286.937 133.068 286.937C135.092 286.937 136.541 285.856 136.541 284.246C136.541 282.659 135.092 281.555 133.068 281.555ZM132.217 290.847H134.126V299.15H132.217V290.847ZM141.417 279.002H143.303V299.817H141.417V279.002ZM126.49 291.882L126.237 290.272C130.101 290.272 135.368 290.226 139.945 289.536L140.083 290.962C135.391 291.813 130.285 291.882 126.49 291.882ZM161.517 279.002H163.426V299.794H161.517V279.002ZM162.966 287.535H166.83V289.145H162.966V287.535ZM147.326 282.314H159.585V283.878H147.326V282.314ZM153.536 285.603C156.48 285.603 158.596 287.581 158.596 290.387C158.596 293.193 156.48 295.171 153.536 295.171C150.615 295.171 148.476 293.193 148.476 290.387C148.476 287.581 150.615 285.603 153.536 285.603ZM153.536 287.19C151.65 287.19 150.293 288.501 150.293 290.387C150.293 292.25 151.65 293.584 153.536 293.584C155.422 293.584 156.779 292.25 156.779 290.387C156.779 288.501 155.422 287.19 153.536 287.19ZM152.547 279.255H154.456V283.027H152.547V279.255ZM171.129 285.235H185.251V286.799H171.129V285.235ZM168.576 289.582H187.436V291.146H168.576V289.582ZM171.129 279.761H173.015V286.017H171.129V279.761ZM170.991 297.724H185.366V299.288H170.991V297.724ZM170.991 293.216H172.877V298.138H170.991V293.216ZM205.558 279.002H207.398V299.794H205.558V279.002ZM196.933 286.937H202.154V288.501H196.933V286.937ZM201.372 279.485H203.189V298.736H201.372V279.485ZM190.516 293.193H191.85C195.093 293.193 197.048 293.101 199.348 292.618L199.532 294.205C197.163 294.711 195.162 294.803 191.85 294.803H190.516V293.193ZM190.516 281.532H198.336V283.096H192.402V293.814H190.516V281.532ZM221.076 289.398H222.87V293.768H221.076V289.398ZM216.89 294.918L216.614 293.331C219.489 293.331 224.043 293.262 227.309 292.825L227.447 294.228C224.066 294.826 219.65 294.918 216.89 294.918ZM232.53 279.002H234.37V299.794H232.53V279.002ZM229.379 287.65H233.128V289.214H229.379V287.65ZM228.252 279.439H230.046V298.69H228.252V279.439ZM221.973 280.98C224.733 280.98 226.711 282.774 226.711 285.396C226.711 288.041 224.733 289.835 221.973 289.835C219.213 289.835 217.235 288.041 217.235 285.396C217.235 282.774 219.213 280.98 221.973 280.98ZM221.973 282.521C220.225 282.521 218.983 283.717 218.983 285.396C218.983 287.098 220.225 288.271 221.973 288.271C223.698 288.271 224.94 287.098 224.94 285.396C224.94 283.717 223.698 282.521 221.973 282.521ZM252.464 289.927H254.35V293.561H252.464V289.927ZM252.165 280.658H253.867V281.279C253.867 284.637 250.049 286.937 245.748 287.466L245.058 285.971C248.784 285.534 252.165 283.648 252.165 281.279V280.658ZM252.97 280.658H254.649V281.279C254.649 283.648 258.03 285.557 261.756 285.971L261.066 287.466C256.765 286.937 252.97 284.637 252.97 281.279V280.658ZM245.725 279.853H261.112V281.394H245.725V279.853ZM244 288.777H262.86V290.341H244V288.777ZM246.093 293.055H260.468V299.794H258.559V294.596H246.093V293.055ZM267.711 285.235H281.833V286.799H267.711V285.235ZM265.158 289.582H284.018V291.146H265.158V289.582ZM267.711 279.761H269.597V286.017H267.711V279.761ZM267.573 297.724H281.948V299.288H267.573V297.724ZM267.573 293.216H269.459V298.138H267.573V293.216ZM307.494 279.002H309.403V299.794H307.494V279.002ZM302.641 287.328H308.345V288.915H302.641V287.328ZM300.824 281.233H302.71C302.71 287.167 300.249 292.411 293.349 295.861L292.291 294.366C298.34 291.399 300.824 286.983 300.824 281.555V281.233ZM293.188 281.233H301.836V282.797H293.188V281.233ZM318.992 280.589C322.051 280.589 324.213 283.418 324.213 287.834C324.213 292.273 322.051 295.102 318.992 295.102C315.933 295.102 313.771 292.273 313.771 287.834C313.771 283.418 315.933 280.589 318.992 280.589ZM318.992 282.314C316.968 282.314 315.588 284.476 315.588 287.834C315.588 291.215 316.968 293.423 318.992 293.423C320.993 293.423 322.396 291.215 322.396 287.834C322.396 284.476 320.993 282.314 318.992 282.314ZM328.928 284.223H332.746V285.833H328.928V284.223ZM328.928 290.41H332.746V292.02H328.928V290.41ZM327.525 279.002H329.457V299.794H327.525V279.002ZM336.677 292.457C336.677 291.89 336.731 291.399 336.838 290.985C336.961 290.571 337.168 290.18 337.459 289.812C337.766 289.429 338.165 289.038 338.655 288.639C339.223 288.179 339.66 287.796 339.966 287.489C340.288 287.167 340.511 286.86 340.633 286.569C340.771 286.262 340.84 285.894 340.84 285.465C340.84 284.806 340.618 284.3 340.173 283.947C339.744 283.594 339.115 283.418 338.287 283.418C337.567 283.418 336.907 283.518 336.309 283.717C335.711 283.901 335.129 284.131 334.561 284.407L333.687 282.567C334.347 282.214 335.067 281.923 335.849 281.693C336.631 281.463 337.498 281.348 338.448 281.348C339.951 281.348 341.109 281.716 341.921 282.452C342.749 283.188 343.163 284.169 343.163 285.396C343.163 286.055 343.056 286.63 342.841 287.121C342.627 287.596 342.312 288.033 341.898 288.432C341.5 288.831 341.024 289.26 340.472 289.72C339.982 290.119 339.606 290.464 339.345 290.755C339.085 291.046 338.908 291.338 338.816 291.629C338.724 291.905 338.678 292.25 338.678 292.664V293.124H336.677V292.457ZM336.194 296.643C336.194 296.045 336.34 295.623 336.631 295.378C336.938 295.133 337.321 295.01 337.781 295.01C338.211 295.01 338.579 295.133 338.885 295.378C339.192 295.623 339.345 296.045 339.345 296.643C339.345 297.241 339.192 297.67 338.885 297.931C338.579 298.192 338.211 298.322 337.781 298.322C337.321 298.322 336.938 298.192 336.631 297.931C336.34 297.67 336.194 297.241 336.194 296.643Z" fill="black"/>
</svg>
