<svg width="666" height="666" viewBox="0 0 666 666" fill="none" xmlns="http://www.w3.org/2000/svg">
<rect width="666" height="666" fill="#5B5B62"/>
<rect width="665" height="666" fill="#5B5B62"/>
<rect width="666" height="110" fill="black" fill-opacity="0.11"/>
<rect x="14" y="232" width="54" height="54" rx="21" fill="#D9D9D9"/>
<path d="M76.8115 265.666C76.3418 264.89 77.0645 263.94 77.9376 264.185L93.6572 268.606C94.3329 268.796 94.6077 269.604 94.1877 270.167L86.9842 279.811C86.5597 280.379 85.695 280.337 85.3276 279.731L76.8115 265.666Z" fill="#D9D9D9"/>
<rect width="274" height="55" rx="19" transform="matrix(-1 0 0 1 649 150)" fill="#D9D9D9"/>
<path d="M653.659 152.763C653.97 151.928 653.115 151.135 652.305 151.506L643.411 155.583C642.909 155.813 642.688 156.407 642.918 156.909L646.994 165.805C647.365 166.615 648.531 166.572 648.841 165.736L653.659 152.763Z" fill="#D9D9D9"/>
<path d="M393.139 168.497H395.048V177.283H393.139V168.497ZM393.139 176.685H394.795C397.762 176.685 400.867 176.478 404.271 175.788L404.501 177.352C401.005 178.088 397.877 178.295 394.795 178.295H393.139V176.685ZM406.364 167.025H408.273V182.044H406.364V167.025ZM407.675 173.166H411.355V174.799H407.675V173.166ZM395.393 185.77H409.009V187.334H395.393V185.77ZM395.393 180.572H397.302V186.506H395.393V180.572ZM420.479 167.991H422.388V176.317H420.479V167.991ZM420.479 175.282H422.089C425.401 175.282 428.184 175.098 431.289 174.477L431.542 176.064C428.322 176.708 425.47 176.869 422.089 176.869H420.479V175.282ZM428.575 170.452H434.923V172.016H428.575V170.452ZM434.463 167.002H436.372V177.743H434.463V167.002ZM422.986 178.709H436.372V183.723H424.941V186.805H423.055V182.274H434.486V180.273H422.986V178.709ZM423.055 185.977H437.108V187.518H423.055V185.977ZM453.201 167.968C456.306 167.968 458.514 169.693 458.514 172.246C458.514 174.776 456.306 176.547 453.201 176.547C450.119 176.547 447.911 174.776 447.911 172.246C447.911 169.693 450.119 167.968 453.201 167.968ZM453.201 169.555C451.177 169.555 449.728 170.659 449.728 172.246C449.728 173.856 451.177 174.937 453.201 174.937C455.225 174.937 456.674 173.856 456.674 172.246C456.674 170.659 455.225 169.555 453.201 169.555ZM452.35 178.847H454.259V187.15H452.35V178.847ZM461.55 167.002H463.436V187.817H461.55V167.002ZM446.623 179.882L446.37 178.272C450.234 178.272 455.501 178.226 460.078 177.536L460.216 178.962C455.524 179.813 450.418 179.882 446.623 179.882ZM467.528 170.544H477.832V172.108H467.528V170.544ZM472.68 173.488C475.279 173.488 477.165 175.443 477.165 178.249C477.165 181.032 475.279 182.987 472.68 182.987C470.104 182.987 468.218 181.032 468.218 178.249C468.218 175.443 470.104 173.488 472.68 173.488ZM472.68 175.121C471.093 175.121 469.943 176.409 469.943 178.249C469.943 180.089 471.093 181.377 472.68 181.377C474.29 181.377 475.463 180.089 475.463 178.249C475.463 176.409 474.29 175.121 472.68 175.121ZM483.329 167.002H485.169V187.794H483.329V167.002ZM480.017 175.742H483.95V177.329H480.017V175.742ZM478.89 167.462H480.684V186.782H478.89V167.462ZM471.76 167.6H473.646V171.51H471.76V167.6ZM499.105 174.04H504.901V175.604H499.105V174.04ZM494.091 168.796H495.655V172.499C495.655 177.168 493.194 181.63 489.905 183.401L488.686 181.883C491.745 180.365 494.091 176.363 494.091 172.499V168.796ZM494.459 168.796H496V172.499C496 176.294 498.346 180.066 501.359 181.492L500.232 183.033C496.874 181.331 494.459 177.053 494.459 172.499V168.796ZM503.958 166.979H505.844V187.817H503.958V166.979ZM524.306 177.927H526.192V181.561H524.306V177.927ZM524.007 168.658H525.709V169.279C525.709 172.637 521.891 174.937 517.59 175.466L516.9 173.971C520.626 173.534 524.007 171.648 524.007 169.279V168.658ZM524.812 168.658H526.491V169.279C526.491 171.648 529.872 173.557 533.598 173.971L532.908 175.466C528.607 174.937 524.812 172.637 524.812 169.279V168.658ZM517.567 167.853H532.954V169.394H517.567V167.853ZM515.842 176.777H534.702V178.341H515.842V176.777ZM517.935 181.055H532.31V187.794H530.401V182.596H517.935V181.055ZM546.407 167.347C550.984 167.347 553.721 168.635 553.721 170.958C553.721 173.281 550.984 174.569 546.407 174.569C541.807 174.569 539.093 173.281 539.093 170.958C539.093 168.635 541.807 167.347 546.407 167.347ZM546.407 168.796C543.003 168.796 541.048 169.578 541.048 170.958C541.048 172.338 543.003 173.12 546.407 173.12C549.788 173.12 551.743 172.338 551.743 170.958C551.743 169.578 549.788 168.796 546.407 168.796ZM537 175.949H555.791V177.49H537V175.949ZM539.277 179.261H553.399V183.953H541.209V186.483H539.323V182.573H551.513V180.733H539.277V179.261ZM539.323 186.069H554.02V187.564H539.323V186.069ZM572.551 167.738H574.23V168.888C574.23 172.867 570.182 175.719 565.858 176.455L565.099 174.914C568.894 174.339 572.551 171.855 572.551 168.888V167.738ZM572.896 167.738H574.552V168.888C574.552 171.786 578.255 174.339 582.004 174.914L581.245 176.455C576.967 175.719 572.896 172.821 572.896 168.888V167.738ZM572.551 179.882H574.437V187.794H572.551V179.882ZM564.156 178.709H582.947V180.296H564.156V178.709ZM596.464 179.79H597.936V180.917C597.936 183.631 596.234 186.368 593.244 187.518L592.278 186.092C594.9 185.149 596.464 182.918 596.464 180.917V179.79ZM596.878 179.79H598.304V180.917C598.304 183.01 599.546 185.241 602.03 186.253L601.225 187.702C598.235 186.529 596.878 183.677 596.878 180.917V179.79ZM604.146 179.79H605.572V180.917C605.572 183.355 604.192 186.437 601.225 187.702L600.42 186.253C602.881 185.126 604.146 182.711 604.146 180.917V179.79ZM604.537 179.79H606.009V180.917C606.009 183.056 607.55 185.195 610.195 186.092L609.229 187.518C606.193 186.414 604.537 183.792 604.537 180.917V179.79ZM606.4 167.025H608.332V178.893H606.4V167.025ZM597.177 168.221C600.328 168.221 602.582 170.199 602.582 173.074C602.582 175.949 600.328 177.904 597.177 177.904C594.026 177.904 591.749 175.949 591.749 173.074C591.749 170.199 594.026 168.221 597.177 168.221ZM597.177 169.808C595.107 169.808 593.612 171.142 593.612 173.074C593.612 175.006 595.107 176.317 597.177 176.317C599.247 176.317 600.742 175.006 600.742 173.074C600.742 171.142 599.247 169.808 597.177 169.808ZM617.99 168.589C621.003 168.589 623.165 171.418 623.165 175.834C623.165 180.273 621.003 183.102 617.99 183.102C614.954 183.102 612.815 180.273 612.815 175.834C612.815 171.418 614.954 168.589 617.99 168.589ZM617.99 170.314C615.989 170.314 614.632 172.476 614.632 175.834C614.632 179.215 615.989 181.423 617.99 181.423C619.991 181.423 621.348 179.215 621.348 175.834C621.348 172.476 619.991 170.314 617.99 170.314ZM627.673 166.979H629.559V187.817H627.673V166.979ZM622.544 174.914H628.501V176.478H622.544V174.914Z" fill="black"/>
<rect x="84.3438" y="265" width="95.6591" height="54.9961" rx="19" fill="#D9D9D9"/>
<path d="M106.67 283.589C109.729 283.589 111.891 286.418 111.891 290.834C111.891 295.273 109.729 298.102 106.67 298.102C103.611 298.102 101.449 295.273 101.449 290.834C101.449 286.418 103.611 283.589 106.67 283.589ZM106.67 285.314C104.646 285.314 103.266 287.476 103.266 290.834C103.266 294.215 104.646 296.423 106.67 296.423C108.671 296.423 110.074 294.215 110.074 290.834C110.074 287.476 108.671 285.314 106.67 285.314ZM115.203 282.002H117.135V302.794H115.203V282.002ZM116.675 290.305H120.539V291.915H116.675V290.305ZM137.419 282.002H139.328V302.794H137.419V282.002ZM123.619 284.026H125.505V296.906H123.619V284.026ZM123.619 295.779H125.321C128.472 295.779 131.761 295.549 135.28 294.813L135.51 296.446C131.899 297.182 128.61 297.435 125.321 297.435H123.619V295.779ZM148.986 283.589C152.045 283.589 154.207 286.418 154.207 290.834C154.207 295.273 152.045 298.102 148.986 298.102C145.927 298.102 143.765 295.273 143.765 290.834C143.765 286.418 145.927 283.589 148.986 283.589ZM148.986 285.314C146.962 285.314 145.582 287.476 145.582 290.834C145.582 294.215 146.962 296.423 148.986 296.423C150.987 296.423 152.39 294.215 152.39 290.834C152.39 287.476 150.987 285.314 148.986 285.314ZM158.922 287.223H162.74V288.833H158.922V287.223ZM158.922 293.41H162.74V295.02H158.922V293.41ZM157.519 282.002H159.451V302.794H157.519V282.002Z" fill="black"/>
<rect x="84.3711" y="328" width="267.63" height="54.9961" rx="19" fill="#D9D9D9"/>
<path d="M116.928 345.002H118.768V365.794H116.928V345.002ZM113.432 353.466H117.434V355.03H113.432V353.466ZM112.213 345.462H114.007V364.736H112.213V345.462ZM102.139 347.509H104.048V359.515H102.139V347.509ZM102.139 358.756H103.473C105.612 358.756 108.004 358.618 110.718 358.089L110.925 359.745C108.096 360.297 105.704 360.412 103.473 360.412H102.139V358.756ZM136.361 344.979H138.293V365.794H136.361V344.979ZM137.764 353.42H141.605V355.007H137.764V353.42ZM131.048 347.233H132.911C132.911 353.144 130.197 358.48 123.481 361.861L122.423 360.389C128.173 357.468 131.048 353.029 131.048 347.532V347.233ZM123.389 347.233H132.037V348.797H123.389V347.233ZM150.384 346.796H159.883V356.479H150.384V346.796ZM157.997 348.337H152.247V354.938H157.997V348.337ZM164.621 345.025H166.53V360.205H164.621V345.025ZM159.331 350.775H165.173V352.339H159.331V350.775ZM153.259 363.77H167.105V365.334H153.259V363.77ZM153.259 358.802H155.168V364.46H153.259V358.802ZM185.802 344.979H187.688V365.817H185.802V344.979ZM181.317 352.569H186.354V354.133H181.317V352.569ZM175.866 347.969H177.407V351.074C177.407 355.559 174.831 359.998 171.542 361.7L170.415 360.182C173.405 358.71 175.866 354.777 175.866 351.074V347.969ZM176.257 347.969H177.775V351.074C177.775 354.547 180.19 358.342 183.203 359.768L182.076 361.263C178.787 359.63 176.257 355.352 176.257 351.074V347.969ZM171.174 347.118H182.49V348.705H171.174V347.118ZM198.928 345.991H200.837V354.317H198.928V345.991ZM198.928 353.282H200.538C203.85 353.282 206.633 353.098 209.738 352.477L209.991 354.064C206.771 354.708 203.919 354.869 200.538 354.869H198.928V353.282ZM207.024 348.452H213.372V350.016H207.024V348.452ZM212.912 345.002H214.821V355.743H212.912V345.002ZM201.435 356.709H214.821V361.723H203.39V364.805H201.504V360.274H212.935V358.273H201.435V356.709ZM201.504 363.977H215.557V365.518H201.504V363.977ZM231.65 345.968C234.755 345.968 236.963 347.693 236.963 350.246C236.963 352.776 234.755 354.547 231.65 354.547C228.568 354.547 226.36 352.776 226.36 350.246C226.36 347.693 228.568 345.968 231.65 345.968ZM231.65 347.555C229.626 347.555 228.177 348.659 228.177 350.246C228.177 351.856 229.626 352.937 231.65 352.937C233.674 352.937 235.123 351.856 235.123 350.246C235.123 348.659 233.674 347.555 231.65 347.555ZM230.799 356.847H232.708V365.15H230.799V356.847ZM239.999 345.002H241.885V365.817H239.999V345.002ZM225.072 357.882L224.819 356.272C228.683 356.272 233.95 356.226 238.527 355.536L238.665 356.962C233.973 357.813 228.867 357.882 225.072 357.882ZM245.977 348.544H256.281V350.108H245.977V348.544ZM251.129 351.488C253.728 351.488 255.614 353.443 255.614 356.249C255.614 359.032 253.728 360.987 251.129 360.987C248.553 360.987 246.667 359.032 246.667 356.249C246.667 353.443 248.553 351.488 251.129 351.488ZM251.129 353.121C249.542 353.121 248.392 354.409 248.392 356.249C248.392 358.089 249.542 359.377 251.129 359.377C252.739 359.377 253.912 358.089 253.912 356.249C253.912 354.409 252.739 353.121 251.129 353.121ZM261.778 345.002H263.618V365.794H261.778V345.002ZM258.466 353.742H262.399V355.329H258.466V353.742ZM257.339 345.462H259.133V364.782H257.339V345.462ZM250.209 345.6H252.095V349.51H250.209V345.6ZM281.597 355.927H283.483V359.561H281.597V355.927ZM281.298 346.658H283V347.279C283 350.637 279.182 352.937 274.881 353.466L274.191 351.971C277.917 351.534 281.298 349.648 281.298 347.279V346.658ZM282.103 346.658H283.782V347.279C283.782 349.648 287.163 351.557 290.889 351.971L290.199 353.466C285.898 352.937 282.103 350.637 282.103 347.279V346.658ZM274.858 345.853H290.245V347.394H274.858V345.853ZM273.133 354.777H291.993V356.341H273.133V354.777ZM275.226 359.055H289.601V365.794H287.692V360.596H275.226V359.055ZM303.698 345.347C308.275 345.347 311.012 346.635 311.012 348.958C311.012 351.281 308.275 352.569 303.698 352.569C299.098 352.569 296.384 351.281 296.384 348.958C296.384 346.635 299.098 345.347 303.698 345.347ZM303.698 346.796C300.294 346.796 298.339 347.578 298.339 348.958C298.339 350.338 300.294 351.12 303.698 351.12C307.079 351.12 309.034 350.338 309.034 348.958C309.034 347.578 307.079 346.796 303.698 346.796ZM294.291 353.949H313.082V355.49H294.291V353.949ZM296.568 357.261H310.69V361.953H298.5V364.483H296.614V360.573H308.804V358.733H296.568V357.261ZM296.614 364.069H311.311V365.564H296.614V364.069ZM331.296 345.002H333.136V365.794H331.296V345.002ZM322.28 353.489H327.524V355.03H322.28V353.489ZM326.972 345.531H328.766V364.736H326.972V345.531ZM322.533 347.624H324.373C324.373 353.075 322.188 357.974 316.576 361.309L315.449 359.952C320.348 357.008 322.533 352.868 322.533 347.969V347.624ZM316.369 347.624H323.246V349.188H316.369V347.624Z" fill="black"/>
<rect x="84.3711" y="391" width="303.63" height="54.9961" rx="19" fill="#D9D9D9"/>
<path d="M102.093 409.796H111.592V419.479H102.093V409.796ZM109.706 411.337H103.956V417.938H109.706V411.337ZM116.33 408.025H118.239V423.205H116.33V408.025ZM111.04 413.775H116.882V415.339H111.04V413.775ZM104.968 426.77H118.814V428.334H104.968V426.77ZM104.968 421.802H106.877V427.46H104.968V421.802ZM137.511 407.979H139.397V428.817H137.511V407.979ZM133.026 415.569H138.063V417.133H133.026V415.569ZM127.575 410.969H129.116V414.074C129.116 418.559 126.54 422.998 123.251 424.7L122.124 423.182C125.114 421.71 127.575 417.777 127.575 414.074V410.969ZM127.966 410.969H129.484V414.074C129.484 417.547 131.899 421.342 134.912 422.768L133.785 424.263C130.496 422.63 127.966 418.352 127.966 414.074V410.969ZM122.883 410.118H134.199V411.705H122.883V410.118ZM151.465 410.21H164.851V411.751H151.465V410.21ZM149.441 424.171H168.232V425.758H149.441V424.171ZM163.839 410.21H165.702V412.28C165.702 414.948 165.702 417.915 164.92 422.4L163.011 422.216C163.839 417.961 163.839 414.856 163.839 412.28V410.21ZM185.779 408.002H187.688V419.433H185.779V408.002ZM173.658 420.606H188.148V422.055H173.658V420.606ZM180.926 422.929C184.583 422.929 186.722 423.964 186.722 425.85C186.722 427.736 184.583 428.771 180.926 428.771C177.246 428.771 175.107 427.736 175.107 425.85C175.107 423.964 177.246 422.929 180.926 422.929ZM180.926 424.309C178.373 424.309 176.947 424.861 176.947 425.85C176.947 426.862 178.373 427.414 180.926 427.414C183.456 427.414 184.882 426.862 184.882 425.85C184.882 424.861 183.456 424.309 180.926 424.309ZM179.96 418.628H181.869V421.664H179.96V418.628ZM171.45 416.581H173.014C176.648 416.581 179.224 416.466 182.306 415.937L182.467 417.432C179.339 417.961 176.717 418.076 173.014 418.076H171.45V416.581ZM171.404 408.945H180.604V414.143H173.336V417.317H171.45V412.74H178.741V410.44H171.404V408.945ZM181.892 412.073H186.377V413.614H181.892V412.073ZM207.581 408.002H209.421V428.794H207.581V408.002ZM198.565 416.489H203.809V418.03H198.565V416.489ZM203.257 408.531H205.051V427.736H203.257V408.531ZM198.818 410.624H200.658C200.658 416.075 198.473 420.974 192.861 424.309L191.734 422.952C196.633 420.008 198.818 415.868 198.818 410.969V410.624ZM192.654 410.624H199.531V412.188H192.654V410.624ZM233.104 408.002H235.013V418.582H233.104V408.002ZM234.185 412.464H238.072V414.051H234.185V412.464ZM219.741 409.175H229.286V417.501H219.741V409.175ZM227.423 410.693H221.604V415.983H227.423V410.693ZM221.811 419.571H235.013V424.677H223.743V427.782H221.857V423.228H233.15V421.089H221.811V419.571ZM221.857 426.977H235.772V428.518H221.857V426.977ZM240.002 411.544H250.306V413.108H240.002V411.544ZM245.154 414.488C247.753 414.488 249.639 416.443 249.639 419.249C249.639 422.032 247.753 423.987 245.154 423.987C242.578 423.987 240.692 422.032 240.692 419.249C240.692 416.443 242.578 414.488 245.154 414.488ZM245.154 416.121C243.567 416.121 242.417 417.409 242.417 419.249C242.417 421.089 243.567 422.377 245.154 422.377C246.764 422.377 247.937 421.089 247.937 419.249C247.937 417.409 246.764 416.121 245.154 416.121ZM255.803 408.002H257.643V428.794H255.803V408.002ZM252.491 416.742H256.424V418.329H252.491V416.742ZM251.364 408.462H253.158V427.782H251.364V408.462ZM244.234 408.6H246.12V412.51H244.234V408.6ZM266.888 410.21H268.475V411.452C268.475 414.327 266.083 416.65 262.518 417.432L261.759 415.983C264.795 415.339 266.888 413.499 266.888 411.452V410.21ZM267.279 410.21H268.82V411.452C268.82 413.384 270.959 415.086 273.926 415.661L273.121 417.133C269.648 416.374 267.279 414.212 267.279 411.452V410.21ZM262.426 409.52H273.351V411.061H262.426V409.52ZM266.842 419.617H268.728V428.15H266.842V419.617ZM276.364 408.002H278.273V428.817H276.364V408.002ZM261.368 420.721L261.115 419.111C264.979 419.111 270.246 419.065 274.777 418.398L274.892 419.824C270.223 420.652 265.186 420.721 261.368 420.721ZM271.649 422.308H276.847V423.803H271.649V422.308ZM292.738 415.04H298.534V416.604H292.738V415.04ZM287.724 409.796H289.288V413.499C289.288 418.168 286.827 422.63 283.538 424.401L282.319 422.883C285.378 421.365 287.724 417.363 287.724 413.499V409.796ZM288.092 409.796H289.633V413.499C289.633 417.294 291.979 421.066 294.992 422.492L293.865 424.033C290.507 422.331 288.092 418.053 288.092 413.499V409.796ZM297.591 407.979H299.477V428.817H297.591V407.979ZM311.476 410.072H324.862V411.659H311.476V410.072ZM309.498 424.309H328.289V425.896H309.498V424.309ZM316.789 416.88H318.698V425.091H316.789V416.88ZM324.149 410.072H326.035V412.142C326.035 414.718 326.035 417.57 325.276 421.779L323.367 421.526C324.149 417.547 324.149 414.626 324.149 412.142V410.072ZM331.461 410.072H341.006V423.527H331.461V410.072ZM339.143 411.613H333.324V421.986H339.143V411.613ZM344.709 408.002H346.641V428.794H344.709V408.002ZM346.181 416.305H350.045V417.915H346.181V416.305ZM357.449 419.617H359.335V428.15H357.449V419.617ZM366.971 408.002H368.88V428.817H366.971V408.002ZM351.975 420.56L351.722 418.95C355.655 418.95 360.876 418.927 365.384 418.283L365.499 419.709C360.853 420.491 355.839 420.56 351.975 420.56ZM362.256 422.193H367.454V423.688H362.256V422.193ZM358.507 409.037C361.566 409.037 363.705 410.67 363.705 413.131C363.705 415.592 361.566 417.225 358.507 417.225C355.402 417.225 353.286 415.592 353.286 413.131C353.286 410.67 355.402 409.037 358.507 409.037ZM358.507 410.509C356.483 410.509 355.057 411.59 355.057 413.131C355.057 414.695 356.483 415.753 358.507 415.753C360.485 415.753 361.911 414.695 361.911 413.131C361.911 411.59 360.485 410.509 358.507 410.509Z" fill="black"/>
</svg>
