<svg width="666" height="666" viewBox="0 0 666 666" fill="none" xmlns="http://www.w3.org/2000/svg">
<rect width="666" height="666" fill="#5B5B62"/>
<rect width="665" height="666" fill="#5B5B62"/>
<rect width="666" height="110" fill="black" fill-opacity="0.11"/>
<rect x="14" y="232" width="54" height="54" rx="21" fill="#D9D9D9"/>
<rect x="84" y="263" width="218" height="55" rx="19" fill="#D9D9D9"/>
<rect x="84" y="326" width="193" height="55" rx="19" fill="#D9D9D9"/>
<path d="M103.174 345.21H116.56V346.751H103.174V345.21ZM101.15 359.171H119.941V360.758H101.15V359.171ZM115.548 345.21H117.411V347.28C117.411 349.948 117.411 352.915 116.629 357.4L114.72 357.216C115.548 352.961 115.548 349.856 115.548 347.28V345.21ZM125.827 356.365H139.397V363.518H125.827V356.365ZM137.534 357.883H127.69V361.977H137.534V357.883ZM137.488 343.025H139.397V355.215H137.488V343.025ZM133.624 347.648H138.109V349.212H133.624V347.648ZM123.159 352.823H124.746C128.265 352.823 130.887 352.731 134.038 352.225L134.199 353.789C130.956 354.295 128.334 354.387 124.746 354.387H123.159V352.823ZM123.113 344.06H132.336V349.856H125.045V353.973H123.159V348.384H130.45V345.601H123.113V344.06ZM164.897 351.282H168.738V352.892H164.897V351.282ZM163.494 342.979H165.426V363.794H163.494V342.979ZM150.246 345.026H152.155V357.906H150.246V345.026ZM150.246 356.917H151.902C154.984 356.917 158.135 356.71 161.562 355.997L161.792 357.584C158.25 358.32 155.053 358.527 151.902 358.527H150.246V356.917ZM172.968 352.708H187.251V354.272H172.968V352.708ZM170.599 359.585H189.436V361.195H170.599V359.585ZM179.017 353.375H180.926V360.229H179.017V353.375ZM172.968 344.658H187.044V346.222H174.877V353.398H172.968V344.658ZM206.173 353.927H208.059V357.561H206.173V353.927ZM205.874 344.658H207.576V345.279C207.576 348.637 203.758 350.937 199.457 351.466L198.767 349.971C202.493 349.534 205.874 347.648 205.874 345.279V344.658ZM206.679 344.658H208.358V345.279C208.358 347.648 211.739 349.557 215.465 349.971L214.775 351.466C210.474 350.937 206.679 348.637 206.679 345.279V344.658ZM199.434 343.853H214.821V345.394H199.434V343.853ZM197.709 352.777H216.569V354.341H197.709V352.777ZM199.802 357.055H214.177V363.794H212.268V358.596H199.802V357.055ZM228.274 343.347C232.851 343.347 235.588 344.635 235.588 346.958C235.588 349.281 232.851 350.569 228.274 350.569C223.674 350.569 220.96 349.281 220.96 346.958C220.96 344.635 223.674 343.347 228.274 343.347ZM228.274 344.796C224.87 344.796 222.915 345.578 222.915 346.958C222.915 348.338 224.87 349.12 228.274 349.12C231.655 349.12 233.61 348.338 233.61 346.958C233.61 345.578 231.655 344.796 228.274 344.796ZM218.867 351.949H237.658V353.49H218.867V351.949ZM221.144 355.261H235.266V359.953H223.076V362.483H221.19V358.573H233.38V356.733H221.144V355.261ZM221.19 362.069H235.887V363.564H221.19V362.069ZM255.872 343.002H257.712V363.794H255.872V343.002ZM246.856 351.489H252.1V353.03H246.856V351.489ZM251.548 343.531H253.342V362.736H251.548V343.531ZM247.109 345.624H248.949C248.949 351.075 246.764 355.974 241.152 359.309L240.025 357.952C244.924 355.008 247.109 350.868 247.109 345.969V345.624ZM240.945 345.624H247.822V347.188H240.945V345.624Z" fill="black"/>
<path d="M76.8115 265.666C76.3418 264.89 77.0645 263.94 77.9376 264.185L93.6572 268.606C94.3329 268.796 94.6077 269.604 94.1877 270.167L86.9842 279.811C86.5597 280.379 85.695 280.337 85.3276 279.731L76.8115 265.666Z" fill="#D9D9D9"/>
<rect width="274" height="55" rx="19" transform="matrix(-1 0 0 1 649 150)" fill="#D9D9D9"/>
<path d="M653.659 152.763C653.97 151.928 653.115 151.135 652.305 151.506L643.411 155.583C642.909 155.813 642.688 156.407 642.918 156.909L646.994 165.805C647.365 166.615 648.531 166.572 648.841 165.736L653.659 152.763Z" fill="#D9D9D9"/>
<path d="M393.139 168.497H395.048V177.283H393.139V168.497ZM393.139 176.685H394.795C397.762 176.685 400.867 176.478 404.271 175.788L404.501 177.352C401.005 178.088 397.877 178.295 394.795 178.295H393.139V176.685ZM406.364 167.025H408.273V182.044H406.364V167.025ZM407.675 173.166H411.355V174.799H407.675V173.166ZM395.393 185.77H409.009V187.334H395.393V185.77ZM395.393 180.572H397.302V186.506H395.393V180.572ZM420.479 167.991H422.388V176.317H420.479V167.991ZM420.479 175.282H422.089C425.401 175.282 428.184 175.098 431.289 174.477L431.542 176.064C428.322 176.708 425.47 176.869 422.089 176.869H420.479V175.282ZM428.575 170.452H434.923V172.016H428.575V170.452ZM434.463 167.002H436.372V177.743H434.463V167.002ZM422.986 178.709H436.372V183.723H424.941V186.805H423.055V182.274H434.486V180.273H422.986V178.709ZM423.055 185.977H437.108V187.518H423.055V185.977ZM453.201 167.968C456.306 167.968 458.514 169.693 458.514 172.246C458.514 174.776 456.306 176.547 453.201 176.547C450.119 176.547 447.911 174.776 447.911 172.246C447.911 169.693 450.119 167.968 453.201 167.968ZM453.201 169.555C451.177 169.555 449.728 170.659 449.728 172.246C449.728 173.856 451.177 174.937 453.201 174.937C455.225 174.937 456.674 173.856 456.674 172.246C456.674 170.659 455.225 169.555 453.201 169.555ZM452.35 178.847H454.259V187.15H452.35V178.847ZM461.55 167.002H463.436V187.817H461.55V167.002ZM446.623 179.882L446.37 178.272C450.234 178.272 455.501 178.226 460.078 177.536L460.216 178.962C455.524 179.813 450.418 179.882 446.623 179.882ZM467.528 170.544H477.832V172.108H467.528V170.544ZM472.68 173.488C475.279 173.488 477.165 175.443 477.165 178.249C477.165 181.032 475.279 182.987 472.68 182.987C470.104 182.987 468.218 181.032 468.218 178.249C468.218 175.443 470.104 173.488 472.68 173.488ZM472.68 175.121C471.093 175.121 469.943 176.409 469.943 178.249C469.943 180.089 471.093 181.377 472.68 181.377C474.29 181.377 475.463 180.089 475.463 178.249C475.463 176.409 474.29 175.121 472.68 175.121ZM483.329 167.002H485.169V187.794H483.329V167.002ZM480.017 175.742H483.95V177.329H480.017V175.742ZM478.89 167.462H480.684V186.782H478.89V167.462ZM471.76 167.6H473.646V171.51H471.76V167.6ZM499.105 174.04H504.901V175.604H499.105V174.04ZM494.091 168.796H495.655V172.499C495.655 177.168 493.194 181.63 489.905 183.401L488.686 181.883C491.745 180.365 494.091 176.363 494.091 172.499V168.796ZM494.459 168.796H496V172.499C496 176.294 498.346 180.066 501.359 181.492L500.232 183.033C496.874 181.331 494.459 177.053 494.459 172.499V168.796ZM503.958 166.979H505.844V187.817H503.958V166.979ZM524.306 177.927H526.192V181.561H524.306V177.927ZM524.007 168.658H525.709V169.279C525.709 172.637 521.891 174.937 517.59 175.466L516.9 173.971C520.626 173.534 524.007 171.648 524.007 169.279V168.658ZM524.812 168.658H526.491V169.279C526.491 171.648 529.872 173.557 533.598 173.971L532.908 175.466C528.607 174.937 524.812 172.637 524.812 169.279V168.658ZM517.567 167.853H532.954V169.394H517.567V167.853ZM515.842 176.777H534.702V178.341H515.842V176.777ZM517.935 181.055H532.31V187.794H530.401V182.596H517.935V181.055ZM546.407 167.347C550.984 167.347 553.721 168.635 553.721 170.958C553.721 173.281 550.984 174.569 546.407 174.569C541.807 174.569 539.093 173.281 539.093 170.958C539.093 168.635 541.807 167.347 546.407 167.347ZM546.407 168.796C543.003 168.796 541.048 169.578 541.048 170.958C541.048 172.338 543.003 173.12 546.407 173.12C549.788 173.12 551.743 172.338 551.743 170.958C551.743 169.578 549.788 168.796 546.407 168.796ZM537 175.949H555.791V177.49H537V175.949ZM539.277 179.261H553.399V183.953H541.209V186.483H539.323V182.573H551.513V180.733H539.277V179.261ZM539.323 186.069H554.02V187.564H539.323V186.069ZM572.551 167.738H574.23V168.888C574.23 172.867 570.182 175.719 565.858 176.455L565.099 174.914C568.894 174.339 572.551 171.855 572.551 168.888V167.738ZM572.896 167.738H574.552V168.888C574.552 171.786 578.255 174.339 582.004 174.914L581.245 176.455C576.967 175.719 572.896 172.821 572.896 168.888V167.738ZM572.551 179.882H574.437V187.794H572.551V179.882ZM564.156 178.709H582.947V180.296H564.156V178.709ZM596.464 179.79H597.936V180.917C597.936 183.631 596.234 186.368 593.244 187.518L592.278 186.092C594.9 185.149 596.464 182.918 596.464 180.917V179.79ZM596.878 179.79H598.304V180.917C598.304 183.01 599.546 185.241 602.03 186.253L601.225 187.702C598.235 186.529 596.878 183.677 596.878 180.917V179.79ZM604.146 179.79H605.572V180.917C605.572 183.355 604.192 186.437 601.225 187.702L600.42 186.253C602.881 185.126 604.146 182.711 604.146 180.917V179.79ZM604.537 179.79H606.009V180.917C606.009 183.056 607.55 185.195 610.195 186.092L609.229 187.518C606.193 186.414 604.537 183.792 604.537 180.917V179.79ZM606.4 167.025H608.332V178.893H606.4V167.025ZM597.177 168.221C600.328 168.221 602.582 170.199 602.582 173.074C602.582 175.949 600.328 177.904 597.177 177.904C594.026 177.904 591.749 175.949 591.749 173.074C591.749 170.199 594.026 168.221 597.177 168.221ZM597.177 169.808C595.107 169.808 593.612 171.142 593.612 173.074C593.612 175.006 595.107 176.317 597.177 176.317C599.247 176.317 600.742 175.006 600.742 173.074C600.742 171.142 599.247 169.808 597.177 169.808ZM617.99 168.589C621.003 168.589 623.165 171.418 623.165 175.834C623.165 180.273 621.003 183.102 617.99 183.102C614.954 183.102 612.815 180.273 612.815 175.834C612.815 171.418 614.954 168.589 617.99 168.589ZM617.99 170.314C615.989 170.314 614.632 172.476 614.632 175.834C614.632 179.215 615.989 181.423 617.99 181.423C619.991 181.423 621.348 179.215 621.348 175.834C621.348 172.476 619.991 170.314 617.99 170.314ZM627.673 166.979H629.559V187.817H627.673V166.979ZM622.544 174.914H628.501V176.478H622.544V174.914Z" fill="black"/>
<path d="M104.67 280.589C107.729 280.589 109.891 283.418 109.891 287.834C109.891 292.273 107.729 295.102 104.67 295.102C101.611 295.102 99.449 292.273 99.449 287.834C99.449 283.418 101.611 280.589 104.67 280.589ZM104.67 282.314C102.646 282.314 101.266 284.476 101.266 287.834C101.266 291.215 102.646 293.423 104.67 293.423C106.671 293.423 108.074 291.215 108.074 287.834C108.074 284.476 106.671 282.314 104.67 282.314ZM113.203 279.002H115.135V299.794H113.203V279.002ZM114.675 287.305H118.539V288.915H114.675V287.305ZM135.419 279.002H137.328V299.794H135.419V279.002ZM121.619 281.026H123.505V293.906H121.619V281.026ZM121.619 292.779H123.321C126.472 292.779 129.761 292.549 133.28 291.813L133.51 293.446C129.899 294.182 126.61 294.435 123.321 294.435H121.619V292.779ZM151.627 289.398H153.421V293.768H151.627V289.398ZM147.441 294.918L147.165 293.331C150.04 293.331 154.594 293.262 157.86 292.825L157.998 294.228C154.617 294.826 150.201 294.918 147.441 294.918ZM163.081 279.002H164.921V299.794H163.081V279.002ZM159.93 287.65H163.679V289.214H159.93V287.65ZM158.803 279.439H160.597V298.69H158.803V279.439ZM152.524 280.98C155.284 280.98 157.262 282.774 157.262 285.396C157.262 288.041 155.284 289.835 152.524 289.835C149.764 289.835 147.786 288.041 147.786 285.396C147.786 282.774 149.764 280.98 152.524 280.98ZM152.524 282.521C150.776 282.521 149.534 283.717 149.534 285.396C149.534 287.098 150.776 288.271 152.524 288.271C154.249 288.271 155.491 287.098 155.491 285.396C155.491 283.717 154.249 282.521 152.524 282.521ZM176.598 281.21H189.984V282.751H176.598V281.21ZM174.574 295.171H193.365V296.758H174.574V295.171ZM188.972 281.21H190.835V283.28C190.835 285.948 190.835 288.915 190.053 293.4L188.144 293.216C188.972 288.961 188.972 285.856 188.972 283.28V281.21ZM210.912 278.979H212.821V299.817H210.912V278.979ZM206.956 286.983H211.372V288.547H206.956V286.983ZM196.491 293.239H198.078C201.758 293.239 204.357 293.124 207.416 292.572L207.6 294.159C204.472 294.711 201.827 294.849 198.078 294.849H196.491V293.239ZM196.445 280.934H205.737V288.225H198.377V293.722H196.491V286.661H203.851V282.498H196.445V280.934ZM219.42 285.235H233.542V286.799H219.42V285.235ZM216.867 289.582H235.727V291.146H216.867V289.582ZM219.42 279.761H221.306V286.017H219.42V279.761ZM219.282 297.724H233.657V299.288H219.282V297.724ZM219.282 293.216H221.168V298.138H219.282V293.216ZM259.203 279.002H261.112V294.366H259.203V279.002ZM254.718 285.419H259.571V287.006H254.718V285.419ZM252.786 280.612H254.787C254.787 285.971 251.015 290.042 245.15 291.997L244.322 290.456C249.405 288.754 252.786 285.488 252.786 281.371V280.612ZM245.357 280.612H254.028V282.176H245.357V280.612ZM247.979 297.77H261.641V299.334H247.979V297.77ZM247.979 292.825H249.888V298.552H247.979V292.825ZM280.982 279.002H282.822V299.794H280.982V279.002ZM272.357 286.937H277.578V288.501H272.357V286.937ZM276.796 279.485H278.613V298.736H276.796V279.485ZM265.94 293.193H267.274C270.517 293.193 272.472 293.101 274.772 292.618L274.956 294.205C272.587 294.711 270.586 294.803 267.274 294.803H265.94V293.193ZM265.94 281.532H273.76V283.096H267.826V293.814H265.94V281.532Z" fill="black"/>
<circle cx="41.5006" cy="251.786" r="5.78571" fill="#5B5B62"/>
<path d="M55 272.518C49.4554 272.518 48.9558 272.518 41.5 272.518C34.0442 272.518 36.4375 272.518 28 272.518C28 265.062 34.0442 259.018 41.5 259.018C48.9558 259.018 55 265.062 55 272.518Z" fill="#5B5B62"/>
<line x1="32.2929" y1="54.2929" x2="46.2929" y2="40.2929" stroke="white" stroke-width="2"/>
<line x1="33.7071" y1="54.2929" x2="47.7071" y2="68.2929" stroke="white" stroke-width="2"/>
<circle cx="553" cy="52" r="9" stroke="white" stroke-width="2"/>
<line x1="559.707" y1="58.2929" x2="568.707" y2="67.2929" stroke="white" stroke-width="2"/>
<line x1="602" y1="44" x2="631" y2="44" stroke="white" stroke-width="2"/>
<line x1="602" y1="54" x2="631" y2="54" stroke="white" stroke-width="2"/>
<line x1="602" y1="64" x2="631" y2="64" stroke="white" stroke-width="2"/>
</svg>
