<svg width="666" height="666" viewBox="0 0 666 666" fill="none" xmlns="http://www.w3.org/2000/svg">
<rect width="666" height="666" fill="#5B5B62"/>
<rect width="665" height="666" fill="#5B5B62"/>
<rect width="666" height="110" fill="black" fill-opacity="0.11"/>
<rect x="14" y="232" width="54" height="54" rx="21" fill="#D9D9D9"/>
<rect x="84" y="263" width="110" height="55" rx="19" fill="#D9D9D9"/>
<path d="M76.8115 265.666C76.3418 264.89 77.0645 263.94 77.9376 264.185L93.6572 268.606C94.3329 268.796 94.6077 269.604 94.1877 270.167L86.9842 279.811C86.5597 280.379 85.695 280.337 85.3276 279.731L76.8115 265.666Z" fill="#D9D9D9"/>
<rect width="274" height="55" rx="19" transform="matrix(-1 0 0 1 649 150)" fill="#D9D9D9"/>
<path d="M653.659 152.763C653.97 151.928 653.115 151.135 652.305 151.506L643.411 155.583C642.909 155.813 642.688 156.407 642.918 156.909L646.994 165.805C647.365 166.615 648.531 166.572 648.841 165.736L653.659 152.763Z" fill="#D9D9D9"/>
<path d="M393.139 168.497H395.048V177.283H393.139V168.497ZM393.139 176.685H394.795C397.762 176.685 400.867 176.478 404.271 175.788L404.501 177.352C401.005 178.088 397.877 178.295 394.795 178.295H393.139V176.685ZM406.364 167.025H408.273V182.044H406.364V167.025ZM407.675 173.166H411.355V174.799H407.675V173.166ZM395.393 185.77H409.009V187.334H395.393V185.77ZM395.393 180.572H397.302V186.506H395.393V180.572ZM420.479 167.991H422.388V176.317H420.479V167.991ZM420.479 175.282H422.089C425.401 175.282 428.184 175.098 431.289 174.477L431.542 176.064C428.322 176.708 425.47 176.869 422.089 176.869H420.479V175.282ZM428.575 170.452H434.923V172.016H428.575V170.452ZM434.463 167.002H436.372V177.743H434.463V167.002ZM422.986 178.709H436.372V183.723H424.941V186.805H423.055V182.274H434.486V180.273H422.986V178.709ZM423.055 185.977H437.108V187.518H423.055V185.977ZM453.201 167.968C456.306 167.968 458.514 169.693 458.514 172.246C458.514 174.776 456.306 176.547 453.201 176.547C450.119 176.547 447.911 174.776 447.911 172.246C447.911 169.693 450.119 167.968 453.201 167.968ZM453.201 169.555C451.177 169.555 449.728 170.659 449.728 172.246C449.728 173.856 451.177 174.937 453.201 174.937C455.225 174.937 456.674 173.856 456.674 172.246C456.674 170.659 455.225 169.555 453.201 169.555ZM452.35 178.847H454.259V187.15H452.35V178.847ZM461.55 167.002H463.436V187.817H461.55V167.002ZM446.623 179.882L446.37 178.272C450.234 178.272 455.501 178.226 460.078 177.536L460.216 178.962C455.524 179.813 450.418 179.882 446.623 179.882ZM467.528 170.544H477.832V172.108H467.528V170.544ZM472.68 173.488C475.279 173.488 477.165 175.443 477.165 178.249C477.165 181.032 475.279 182.987 472.68 182.987C470.104 182.987 468.218 181.032 468.218 178.249C468.218 175.443 470.104 173.488 472.68 173.488ZM472.68 175.121C471.093 175.121 469.943 176.409 469.943 178.249C469.943 180.089 471.093 181.377 472.68 181.377C474.29 181.377 475.463 180.089 475.463 178.249C475.463 176.409 474.29 175.121 472.68 175.121ZM483.329 167.002H485.169V187.794H483.329V167.002ZM480.017 175.742H483.95V177.329H480.017V175.742ZM478.89 167.462H480.684V186.782H478.89V167.462ZM471.76 167.6H473.646V171.51H471.76V167.6ZM499.105 174.04H504.901V175.604H499.105V174.04ZM494.091 168.796H495.655V172.499C495.655 177.168 493.194 181.63 489.905 183.401L488.686 181.883C491.745 180.365 494.091 176.363 494.091 172.499V168.796ZM494.459 168.796H496V172.499C496 176.294 498.346 180.066 501.359 181.492L500.232 183.033C496.874 181.331 494.459 177.053 494.459 172.499V168.796ZM503.958 166.979H505.844V187.817H503.958V166.979ZM524.306 177.927H526.192V181.561H524.306V177.927ZM524.007 168.658H525.709V169.279C525.709 172.637 521.891 174.937 517.59 175.466L516.9 173.971C520.626 173.534 524.007 171.648 524.007 169.279V168.658ZM524.812 168.658H526.491V169.279C526.491 171.648 529.872 173.557 533.598 173.971L532.908 175.466C528.607 174.937 524.812 172.637 524.812 169.279V168.658ZM517.567 167.853H532.954V169.394H517.567V167.853ZM515.842 176.777H534.702V178.341H515.842V176.777ZM517.935 181.055H532.31V187.794H530.401V182.596H517.935V181.055ZM546.407 167.347C550.984 167.347 553.721 168.635 553.721 170.958C553.721 173.281 550.984 174.569 546.407 174.569C541.807 174.569 539.093 173.281 539.093 170.958C539.093 168.635 541.807 167.347 546.407 167.347ZM546.407 168.796C543.003 168.796 541.048 169.578 541.048 170.958C541.048 172.338 543.003 173.12 546.407 173.12C549.788 173.12 551.743 172.338 551.743 170.958C551.743 169.578 549.788 168.796 546.407 168.796ZM537 175.949H555.791V177.49H537V175.949ZM539.277 179.261H553.399V183.953H541.209V186.483H539.323V182.573H551.513V180.733H539.277V179.261ZM539.323 186.069H554.02V187.564H539.323V186.069ZM572.551 167.738H574.23V168.888C574.23 172.867 570.182 175.719 565.858 176.455L565.099 174.914C568.894 174.339 572.551 171.855 572.551 168.888V167.738ZM572.896 167.738H574.552V168.888C574.552 171.786 578.255 174.339 582.004 174.914L581.245 176.455C576.967 175.719 572.896 172.821 572.896 168.888V167.738ZM572.551 179.882H574.437V187.794H572.551V179.882ZM564.156 178.709H582.947V180.296H564.156V178.709ZM596.464 179.79H597.936V180.917C597.936 183.631 596.234 186.368 593.244 187.518L592.278 186.092C594.9 185.149 596.464 182.918 596.464 180.917V179.79ZM596.878 179.79H598.304V180.917C598.304 183.01 599.546 185.241 602.03 186.253L601.225 187.702C598.235 186.529 596.878 183.677 596.878 180.917V179.79ZM604.146 179.79H605.572V180.917C605.572 183.355 604.192 186.437 601.225 187.702L600.42 186.253C602.881 185.126 604.146 182.711 604.146 180.917V179.79ZM604.537 179.79H606.009V180.917C606.009 183.056 607.55 185.195 610.195 186.092L609.229 187.518C606.193 186.414 604.537 183.792 604.537 180.917V179.79ZM606.4 167.025H608.332V178.893H606.4V167.025ZM597.177 168.221C600.328 168.221 602.582 170.199 602.582 173.074C602.582 175.949 600.328 177.904 597.177 177.904C594.026 177.904 591.749 175.949 591.749 173.074C591.749 170.199 594.026 168.221 597.177 168.221ZM597.177 169.808C595.107 169.808 593.612 171.142 593.612 173.074C593.612 175.006 595.107 176.317 597.177 176.317C599.247 176.317 600.742 175.006 600.742 173.074C600.742 171.142 599.247 169.808 597.177 169.808ZM617.99 168.589C621.003 168.589 623.165 171.418 623.165 175.834C623.165 180.273 621.003 183.102 617.99 183.102C614.954 183.102 612.815 180.273 612.815 175.834C612.815 171.418 614.954 168.589 617.99 168.589ZM617.99 170.314C615.989 170.314 614.632 172.476 614.632 175.834C614.632 179.215 615.989 181.423 617.99 181.423C619.991 181.423 621.348 179.215 621.348 175.834C621.348 172.476 619.991 170.314 617.99 170.314ZM627.673 166.979H629.559V187.817H627.673V166.979ZM622.544 174.914H628.501V176.478H622.544V174.914Z" fill="black"/>
<path d="M104.67 281.589C107.729 281.589 109.891 284.418 109.891 288.834C109.891 293.273 107.729 296.102 104.67 296.102C101.611 296.102 99.449 293.273 99.449 288.834C99.449 284.418 101.611 281.589 104.67 281.589ZM104.67 283.314C102.646 283.314 101.266 285.476 101.266 288.834C101.266 292.215 102.646 294.423 104.67 294.423C106.671 294.423 108.074 292.215 108.074 288.834C108.074 285.476 106.671 283.314 104.67 283.314ZM113.203 280.002H115.135V300.794H113.203V280.002ZM114.675 288.305H118.539V289.915H114.675V288.305ZM135.419 280.002H137.328V300.794H135.419V280.002ZM121.619 282.026H123.505V294.906H121.619V282.026ZM121.619 293.779H123.321C126.472 293.779 129.761 293.549 133.28 292.813L133.51 294.446C129.899 295.182 126.61 295.435 123.321 295.435H121.619V293.779ZM151.627 290.398H153.421V294.768H151.627V290.398ZM147.441 295.918L147.165 294.331C150.04 294.331 154.594 294.262 157.86 293.825L157.998 295.228C154.617 295.826 150.201 295.918 147.441 295.918ZM163.081 280.002H164.921V300.794H163.081V280.002ZM159.93 288.65H163.679V290.214H159.93V288.65ZM158.803 280.439H160.597V299.69H158.803V280.439ZM152.524 281.98C155.284 281.98 157.262 283.774 157.262 286.396C157.262 289.041 155.284 290.835 152.524 290.835C149.764 290.835 147.786 289.041 147.786 286.396C147.786 283.774 149.764 281.98 152.524 281.98ZM152.524 283.521C150.776 283.521 149.534 284.717 149.534 286.396C149.534 288.098 150.776 289.271 152.524 289.271C154.249 289.271 155.491 288.098 155.491 286.396C155.491 284.717 154.249 283.521 152.524 283.521ZM170.646 293.457C170.646 292.89 170.7 292.399 170.807 291.985C170.93 291.571 171.137 291.18 171.428 290.812C171.735 290.429 172.134 290.038 172.624 289.639C173.192 289.179 173.629 288.796 173.935 288.489C174.257 288.167 174.48 287.86 174.602 287.569C174.74 287.262 174.809 286.894 174.809 286.465C174.809 285.806 174.587 285.3 174.142 284.947C173.713 284.594 173.084 284.418 172.256 284.418C171.536 284.418 170.876 284.518 170.278 284.717C169.68 284.901 169.098 285.131 168.53 285.407L167.656 283.567C168.316 283.214 169.036 282.923 169.818 282.693C170.6 282.463 171.467 282.348 172.417 282.348C173.92 282.348 175.078 282.716 175.89 283.452C176.718 284.188 177.132 285.169 177.132 286.396C177.132 287.055 177.025 287.63 176.81 288.121C176.596 288.596 176.281 289.033 175.867 289.432C175.469 289.831 174.993 290.26 174.441 290.72C173.951 291.119 173.575 291.464 173.314 291.755C173.054 292.046 172.877 292.338 172.785 292.629C172.693 292.905 172.647 293.25 172.647 293.664V294.124H170.646V293.457ZM170.163 297.643C170.163 297.045 170.309 296.623 170.6 296.378C170.907 296.133 171.29 296.01 171.75 296.01C172.18 296.01 172.548 296.133 172.854 296.378C173.161 296.623 173.314 297.045 173.314 297.643C173.314 298.241 173.161 298.67 172.854 298.931C172.548 299.192 172.18 299.322 171.75 299.322C171.29 299.322 170.907 299.192 170.6 298.931C170.309 298.67 170.163 298.241 170.163 297.643Z" fill="black"/>
<rect x="84" y="326" width="121" height="55" rx="19" fill="#D9D9D9"/>
<path d="M76.8115 328.666C76.3418 327.89 77.0645 326.94 77.9376 327.185L93.6572 331.606C94.3329 331.796 94.6077 332.604 94.1877 333.167L86.9842 342.811C86.5597 343.379 85.695 343.337 85.3276 342.731L76.8115 328.666Z" fill="#D9D9D9"/>
<path d="M101.174 345.21H114.56V346.751H101.174V345.21ZM99.15 359.171H117.941V360.758H99.15V359.171ZM113.548 345.21H115.411V347.28C115.411 349.948 115.411 352.915 114.629 357.4L112.72 357.216C113.548 352.961 113.548 349.856 113.548 347.28V345.21ZM135.488 342.979H137.397V363.817H135.488V342.979ZM131.532 350.983H135.948V352.547H131.532V350.983ZM121.067 357.239H122.654C126.334 357.239 128.933 357.124 131.992 356.572L132.176 358.159C129.048 358.711 126.403 358.849 122.654 358.849H121.067V357.239ZM121.021 344.934H130.313V352.225H122.953V357.722H121.067V350.661H128.427V346.498H121.021V344.934ZM146.963 345.969H148.504V349.35C148.504 353.743 145.859 358.159 142.547 359.792L141.443 358.274C144.456 356.848 146.963 352.938 146.963 349.35V345.969ZM147.331 345.969H148.872V349.35C148.872 352.869 151.379 356.457 154.438 357.768L153.357 359.286C149.999 357.722 147.331 353.674 147.331 349.35V345.969ZM142.133 345.118H153.748V346.728H142.133V345.118ZM156.554 343.002H158.463V363.794H156.554V343.002ZM169.404 345.072H178.949V358.527H169.404V345.072ZM177.086 346.613H171.267V356.986H177.086V346.613ZM182.652 343.002H184.584V363.794H182.652V343.002ZM184.124 351.305H187.988V352.915H184.124V351.305Z" fill="black"/>
<rect x="83.0703" y="389" width="212.93" height="55" rx="19" fill="#D9D9D9"/>
<path d="M76.6712 391.671C76.2447 390.88 76.9957 389.972 77.8522 390.242L91.66 394.6C92.2949 394.8 92.5604 395.553 92.1916 396.107L85.8641 405.614C85.4461 406.242 84.5098 406.199 84.1516 405.535L76.6712 391.671Z" fill="#D9D9D9"/>
<path d="M114.951 406.002H116.791V426.794H114.951V406.002ZM107.384 413.454H111.363V415.041H107.384V413.454ZM110.788 406.485H112.582V425.736H110.788V406.485ZM103.382 409.222H104.854V411.867C104.854 416.421 103.106 420.722 100.047 422.654L98.874 421.228C101.772 419.48 103.382 415.685 103.382 411.867V409.222ZM103.773 409.222H105.245V411.867C105.245 415.478 106.809 419.089 109.661 420.745L108.488 422.148C105.452 420.308 103.773 416.214 103.773 411.867V409.222ZM99.449 408.417H108.948V410.004H99.449V408.417ZM121.159 406.853H123.045V409.843H128.91V406.853H130.773V415.938H121.159V406.853ZM123.045 411.338V414.397H128.91V411.338H123.045ZM134.522 406.002H136.431V416.72H134.522V406.002ZM135.603 410.464H139.49V412.051H135.603V410.464ZM123.229 417.732H136.431V422.769H125.161V425.897H123.275V421.343H134.568V419.25H123.229V417.732ZM123.275 425.046H137.19V426.564H123.275V425.046ZM149.465 408.21H162.851V409.751H149.465V408.21ZM147.441 422.171H166.232V423.758H147.441V422.171ZM161.839 408.21H163.702V410.28C163.702 412.948 163.702 415.915 162.92 420.4L161.011 420.216C161.839 415.961 161.839 412.856 161.839 410.28V408.21ZM183.779 405.979H185.688V426.817H183.779V405.979ZM179.823 413.983H184.239V415.547H179.823V413.983ZM169.358 420.239H170.945C174.625 420.239 177.224 420.124 180.283 419.572L180.467 421.159C177.339 421.711 174.694 421.849 170.945 421.849H169.358V420.239ZM169.312 407.934H178.604V415.225H171.244V420.722H169.358V413.661H176.718V409.498H169.312V407.934ZM195.254 408.969H196.795V412.35C196.795 416.743 194.15 421.159 190.838 422.792L189.734 421.274C192.747 419.848 195.254 415.938 195.254 412.35V408.969ZM195.622 408.969H197.163V412.35C197.163 415.869 199.67 419.457 202.729 420.768L201.648 422.286C198.29 420.722 195.622 416.674 195.622 412.35V408.969ZM190.424 408.118H202.039V409.728H190.424V408.118ZM204.845 406.002H206.754V426.794H204.845V406.002ZM231.104 406.002H233.013V416.582H231.104V406.002ZM232.185 410.464H236.072V412.051H232.185V410.464ZM217.741 407.175H227.286V415.501H217.741V407.175ZM225.423 408.693H219.604V413.983H225.423V408.693ZM219.811 417.571H233.013V422.677H221.743V425.782H219.857V421.228H231.15V419.089H219.811V417.571ZM219.857 424.977H233.772V426.518H219.857V424.977ZM243.568 407.589C246.627 407.589 248.789 410.418 248.789 414.834C248.789 419.273 246.627 422.102 243.568 422.102C240.509 422.102 238.347 419.273 238.347 414.834C238.347 410.418 240.509 407.589 243.568 407.589ZM243.568 409.314C241.544 409.314 240.164 411.476 240.164 414.834C240.164 418.215 241.544 420.423 243.568 420.423C245.569 420.423 246.972 418.215 246.972 414.834C246.972 411.476 245.569 409.314 243.568 409.314ZM252.101 406.002H254.033V426.794H252.101V406.002ZM253.573 414.305H257.437V415.915H253.573V414.305ZM264.888 408.21H266.475V409.452C266.475 412.327 264.083 414.65 260.518 415.432L259.759 413.983C262.795 413.339 264.888 411.499 264.888 409.452V408.21ZM265.279 408.21H266.82V409.452C266.82 411.384 268.959 413.086 271.926 413.661L271.121 415.133C267.648 414.374 265.279 412.212 265.279 409.452V408.21ZM260.426 407.52H271.351V409.061H260.426V407.52ZM264.842 417.617H266.728V426.15H264.842V417.617ZM274.364 406.002H276.273V426.817H274.364V406.002ZM259.368 418.721L259.115 417.111C262.979 417.111 268.246 417.065 272.777 416.398L272.892 417.824C268.223 418.652 263.186 418.721 259.368 418.721ZM269.649 420.308H274.847V421.803H269.649V420.308Z" fill="black"/>
</svg>
