<svg width="666" height="666" viewBox="0 0 666 666" fill="none" xmlns="http://www.w3.org/2000/svg">
<rect width="666" height="666" fill="#5B5B62"/>
<rect width="665" height="666" fill="#5B5B62"/>
<rect width="666" height="110" fill="black" fill-opacity="0.11"/>
<rect x="14" y="232" width="54" height="54" rx="21" fill="#D9D9D9"/>
<rect x="84" y="263" width="122" height="55" rx="19" fill="#D9D9D9"/>
<path d="M76.8115 265.666C76.3418 264.89 77.0645 263.94 77.9376 264.185L93.6572 268.606C94.3329 268.796 94.6077 269.604 94.1877 270.167L86.9842 279.811C86.5597 280.379 85.695 280.337 85.3276 279.731L76.8115 265.666Z" fill="#D9D9D9"/>
<rect width="274" height="55" rx="19" transform="matrix(-1 0 0 1 649 150)" fill="#D9D9D9"/>
<path d="M653.659 152.763C653.97 151.928 653.115 151.135 652.305 151.506L643.411 155.583C642.909 155.813 642.688 156.407 642.918 156.909L646.994 165.805C647.365 166.615 648.531 166.572 648.841 165.736L653.659 152.763Z" fill="#D9D9D9"/>
<path d="M393.139 168.497H395.048V177.283H393.139V168.497ZM393.139 176.685H394.795C397.762 176.685 400.867 176.478 404.271 175.788L404.501 177.352C401.005 178.088 397.877 178.295 394.795 178.295H393.139V176.685ZM406.364 167.025H408.273V182.044H406.364V167.025ZM407.675 173.166H411.355V174.799H407.675V173.166ZM395.393 185.77H409.009V187.334H395.393V185.77ZM395.393 180.572H397.302V186.506H395.393V180.572ZM420.479 167.991H422.388V176.317H420.479V167.991ZM420.479 175.282H422.089C425.401 175.282 428.184 175.098 431.289 174.477L431.542 176.064C428.322 176.708 425.47 176.869 422.089 176.869H420.479V175.282ZM428.575 170.452H434.923V172.016H428.575V170.452ZM434.463 167.002H436.372V177.743H434.463V167.002ZM422.986 178.709H436.372V183.723H424.941V186.805H423.055V182.274H434.486V180.273H422.986V178.709ZM423.055 185.977H437.108V187.518H423.055V185.977ZM453.201 167.968C456.306 167.968 458.514 169.693 458.514 172.246C458.514 174.776 456.306 176.547 453.201 176.547C450.119 176.547 447.911 174.776 447.911 172.246C447.911 169.693 450.119 167.968 453.201 167.968ZM453.201 169.555C451.177 169.555 449.728 170.659 449.728 172.246C449.728 173.856 451.177 174.937 453.201 174.937C455.225 174.937 456.674 173.856 456.674 172.246C456.674 170.659 455.225 169.555 453.201 169.555ZM452.35 178.847H454.259V187.15H452.35V178.847ZM461.55 167.002H463.436V187.817H461.55V167.002ZM446.623 179.882L446.37 178.272C450.234 178.272 455.501 178.226 460.078 177.536L460.216 178.962C455.524 179.813 450.418 179.882 446.623 179.882ZM467.528 170.544H477.832V172.108H467.528V170.544ZM472.68 173.488C475.279 173.488 477.165 175.443 477.165 178.249C477.165 181.032 475.279 182.987 472.68 182.987C470.104 182.987 468.218 181.032 468.218 178.249C468.218 175.443 470.104 173.488 472.68 173.488ZM472.68 175.121C471.093 175.121 469.943 176.409 469.943 178.249C469.943 180.089 471.093 181.377 472.68 181.377C474.29 181.377 475.463 180.089 475.463 178.249C475.463 176.409 474.29 175.121 472.68 175.121ZM483.329 167.002H485.169V187.794H483.329V167.002ZM480.017 175.742H483.95V177.329H480.017V175.742ZM478.89 167.462H480.684V186.782H478.89V167.462ZM471.76 167.6H473.646V171.51H471.76V167.6ZM499.105 174.04H504.901V175.604H499.105V174.04ZM494.091 168.796H495.655V172.499C495.655 177.168 493.194 181.63 489.905 183.401L488.686 181.883C491.745 180.365 494.091 176.363 494.091 172.499V168.796ZM494.459 168.796H496V172.499C496 176.294 498.346 180.066 501.359 181.492L500.232 183.033C496.874 181.331 494.459 177.053 494.459 172.499V168.796ZM503.958 166.979H505.844V187.817H503.958V166.979ZM524.306 177.927H526.192V181.561H524.306V177.927ZM524.007 168.658H525.709V169.279C525.709 172.637 521.891 174.937 517.59 175.466L516.9 173.971C520.626 173.534 524.007 171.648 524.007 169.279V168.658ZM524.812 168.658H526.491V169.279C526.491 171.648 529.872 173.557 533.598 173.971L532.908 175.466C528.607 174.937 524.812 172.637 524.812 169.279V168.658ZM517.567 167.853H532.954V169.394H517.567V167.853ZM515.842 176.777H534.702V178.341H515.842V176.777ZM517.935 181.055H532.31V187.794H530.401V182.596H517.935V181.055ZM546.407 167.347C550.984 167.347 553.721 168.635 553.721 170.958C553.721 173.281 550.984 174.569 546.407 174.569C541.807 174.569 539.093 173.281 539.093 170.958C539.093 168.635 541.807 167.347 546.407 167.347ZM546.407 168.796C543.003 168.796 541.048 169.578 541.048 170.958C541.048 172.338 543.003 173.12 546.407 173.12C549.788 173.12 551.743 172.338 551.743 170.958C551.743 169.578 549.788 168.796 546.407 168.796ZM537 175.949H555.791V177.49H537V175.949ZM539.277 179.261H553.399V183.953H541.209V186.483H539.323V182.573H551.513V180.733H539.277V179.261ZM539.323 186.069H554.02V187.564H539.323V186.069ZM572.551 167.738H574.23V168.888C574.23 172.867 570.182 175.719 565.858 176.455L565.099 174.914C568.894 174.339 572.551 171.855 572.551 168.888V167.738ZM572.896 167.738H574.552V168.888C574.552 171.786 578.255 174.339 582.004 174.914L581.245 176.455C576.967 175.719 572.896 172.821 572.896 168.888V167.738ZM572.551 179.882H574.437V187.794H572.551V179.882ZM564.156 178.709H582.947V180.296H564.156V178.709ZM596.464 179.79H597.936V180.917C597.936 183.631 596.234 186.368 593.244 187.518L592.278 186.092C594.9 185.149 596.464 182.918 596.464 180.917V179.79ZM596.878 179.79H598.304V180.917C598.304 183.01 599.546 185.241 602.03 186.253L601.225 187.702C598.235 186.529 596.878 183.677 596.878 180.917V179.79ZM604.146 179.79H605.572V180.917C605.572 183.355 604.192 186.437 601.225 187.702L600.42 186.253C602.881 185.126 604.146 182.711 604.146 180.917V179.79ZM604.537 179.79H606.009V180.917C606.009 183.056 607.55 185.195 610.195 186.092L609.229 187.518C606.193 186.414 604.537 183.792 604.537 180.917V179.79ZM606.4 167.025H608.332V178.893H606.4V167.025ZM597.177 168.221C600.328 168.221 602.582 170.199 602.582 173.074C602.582 175.949 600.328 177.904 597.177 177.904C594.026 177.904 591.749 175.949 591.749 173.074C591.749 170.199 594.026 168.221 597.177 168.221ZM597.177 169.808C595.107 169.808 593.612 171.142 593.612 173.074C593.612 175.006 595.107 176.317 597.177 176.317C599.247 176.317 600.742 175.006 600.742 173.074C600.742 171.142 599.247 169.808 597.177 169.808ZM617.99 168.589C621.003 168.589 623.165 171.418 623.165 175.834C623.165 180.273 621.003 183.102 617.99 183.102C614.954 183.102 612.815 180.273 612.815 175.834C612.815 171.418 614.954 168.589 617.99 168.589ZM617.99 170.314C615.989 170.314 614.632 172.476 614.632 175.834C614.632 179.215 615.989 181.423 617.99 181.423C619.991 181.423 621.348 179.215 621.348 175.834C621.348 172.476 619.991 170.314 617.99 170.314ZM627.673 166.979H629.559V187.817H627.673V166.979ZM622.544 174.914H628.501V176.478H622.544V174.914Z" fill="black"/>
<path d="M109.913 285.637H113.524V287.201H109.913V285.637ZM106.072 281.543C108.786 281.543 110.787 283.544 110.787 286.419C110.787 289.317 108.786 291.318 106.072 291.318C103.312 291.318 101.334 289.317 101.334 286.419C101.334 283.544 103.312 281.543 106.072 281.543ZM106.072 283.13C104.324 283.13 103.059 284.487 103.059 286.419C103.059 288.351 104.324 289.731 106.072 289.731C107.797 289.731 109.062 288.351 109.062 286.419C109.062 284.487 107.797 283.13 106.072 283.13ZM116.859 280.025H118.676V292.767H116.859V280.025ZM112.903 280.439H114.72V292.054H112.903V280.439ZM111.822 293.181C116.1 293.181 118.768 294.584 118.768 296.953C118.768 299.368 116.1 300.771 111.822 300.771C107.544 300.771 104.899 299.368 104.899 296.953C104.899 294.584 107.544 293.181 111.822 293.181ZM111.822 294.653C108.694 294.653 106.762 295.504 106.762 296.953C106.762 298.425 108.694 299.276 111.822 299.276C114.95 299.276 116.859 298.425 116.859 296.953C116.859 295.504 114.95 294.653 111.822 294.653ZM124.355 293.457C124.355 292.89 124.409 292.399 124.516 291.985C124.639 291.571 124.846 291.18 125.137 290.812C125.444 290.429 125.843 290.038 126.333 289.639C126.901 289.179 127.338 288.796 127.644 288.489C127.966 288.167 128.189 287.86 128.311 287.569C128.449 287.262 128.518 286.894 128.518 286.465C128.518 285.806 128.296 285.3 127.851 284.947C127.422 284.594 126.793 284.418 125.965 284.418C125.245 284.418 124.585 284.518 123.987 284.717C123.389 284.901 122.807 285.131 122.239 285.407L121.365 283.567C122.025 283.214 122.745 282.923 123.527 282.693C124.309 282.463 125.176 282.348 126.126 282.348C127.629 282.348 128.787 282.716 129.599 283.452C130.427 284.188 130.841 285.169 130.841 286.396C130.841 287.055 130.734 287.63 130.519 288.121C130.305 288.596 129.99 289.033 129.576 289.432C129.178 289.831 128.702 290.26 128.15 290.72C127.66 291.119 127.284 291.464 127.023 291.755C126.763 292.046 126.586 292.338 126.494 292.629C126.402 292.905 126.356 293.25 126.356 293.664V294.124H124.355V293.457ZM123.872 297.643C123.872 297.045 124.018 296.623 124.309 296.378C124.616 296.133 124.999 296.01 125.459 296.01C125.889 296.01 126.257 296.133 126.563 296.378C126.87 296.623 127.023 297.045 127.023 297.643C127.023 298.241 126.87 298.67 126.563 298.931C126.257 299.192 125.889 299.322 125.459 299.322C124.999 299.322 124.616 299.192 124.309 298.931C124.018 298.67 123.872 298.241 123.872 297.643ZM134.642 293.457C134.642 292.89 134.696 292.399 134.803 291.985C134.926 291.571 135.133 291.18 135.424 290.812C135.731 290.429 136.13 290.038 136.62 289.639C137.188 289.179 137.625 288.796 137.931 288.489C138.253 288.167 138.476 287.86 138.598 287.569C138.736 287.262 138.805 286.894 138.805 286.465C138.805 285.806 138.583 285.3 138.138 284.947C137.709 284.594 137.08 284.418 136.252 284.418C135.532 284.418 134.872 284.518 134.274 284.717C133.676 284.901 133.094 285.131 132.526 285.407L131.652 283.567C132.312 283.214 133.032 282.923 133.814 282.693C134.596 282.463 135.463 282.348 136.413 282.348C137.916 282.348 139.074 282.716 139.886 283.452C140.714 284.188 141.128 285.169 141.128 286.396C141.128 287.055 141.021 287.63 140.806 288.121C140.592 288.596 140.277 289.033 139.863 289.432C139.465 289.831 138.989 290.26 138.437 290.72C137.947 291.119 137.571 291.464 137.31 291.755C137.05 292.046 136.873 292.338 136.781 292.629C136.689 292.905 136.643 293.25 136.643 293.664V294.124H134.642V293.457ZM134.159 297.643C134.159 297.045 134.305 296.623 134.596 296.378C134.903 296.133 135.286 296.01 135.746 296.01C136.176 296.01 136.544 296.133 136.85 296.378C137.157 296.623 137.31 297.045 137.31 297.643C137.31 298.241 137.157 298.67 136.85 298.931C136.544 299.192 136.176 299.322 135.746 299.322C135.286 299.322 134.903 299.192 134.596 298.931C134.305 298.67 134.159 298.241 134.159 297.643ZM153.043 290.398H154.837V294.768H153.043V290.398ZM148.857 295.918L148.581 294.331C151.456 294.331 156.01 294.262 159.276 293.825L159.414 295.228C156.033 295.826 151.617 295.918 148.857 295.918ZM164.497 280.002H166.337V300.794H164.497V280.002ZM161.346 288.65H165.095V290.214H161.346V288.65ZM160.219 280.439H162.013V299.69H160.219V280.439ZM153.94 281.98C156.7 281.98 158.678 283.774 158.678 286.396C158.678 289.041 156.7 290.835 153.94 290.835C151.18 290.835 149.202 289.041 149.202 286.396C149.202 283.774 151.18 281.98 153.94 281.98ZM153.94 283.521C152.192 283.521 150.95 284.717 150.95 286.396C150.95 288.098 152.192 289.271 153.94 289.271C155.665 289.271 156.907 288.098 156.907 286.396C156.907 284.717 155.665 283.521 153.94 283.521ZM172.062 293.457C172.062 292.89 172.116 292.399 172.223 291.985C172.346 291.571 172.553 291.18 172.844 290.812C173.151 290.429 173.55 290.038 174.04 289.639C174.608 289.179 175.045 288.796 175.351 288.489C175.673 288.167 175.896 287.86 176.018 287.569C176.156 287.262 176.225 286.894 176.225 286.465C176.225 285.806 176.003 285.3 175.558 284.947C175.129 284.594 174.5 284.418 173.672 284.418C172.952 284.418 172.292 284.518 171.694 284.717C171.096 284.901 170.514 285.131 169.946 285.407L169.072 283.567C169.732 283.214 170.452 282.923 171.234 282.693C172.016 282.463 172.883 282.348 173.833 282.348C175.336 282.348 176.494 282.716 177.306 283.452C178.134 284.188 178.548 285.169 178.548 286.396C178.548 287.055 178.441 287.63 178.226 288.121C178.012 288.596 177.697 289.033 177.283 289.432C176.885 289.831 176.409 290.26 175.857 290.72C175.367 291.119 174.991 291.464 174.73 291.755C174.47 292.046 174.293 292.338 174.201 292.629C174.109 292.905 174.063 293.25 174.063 293.664V294.124H172.062V293.457ZM171.579 297.643C171.579 297.045 171.725 296.623 172.016 296.378C172.323 296.133 172.706 296.01 173.166 296.01C173.596 296.01 173.964 296.133 174.27 296.378C174.577 296.623 174.73 297.045 174.73 297.643C174.73 298.241 174.577 298.67 174.27 298.931C173.964 299.192 173.596 299.322 173.166 299.322C172.706 299.322 172.323 299.192 172.016 298.931C171.725 298.67 171.579 298.241 171.579 297.643ZM182.349 293.457C182.349 292.89 182.403 292.399 182.51 291.985C182.633 291.571 182.84 291.18 183.131 290.812C183.438 290.429 183.837 290.038 184.327 289.639C184.895 289.179 185.332 288.796 185.638 288.489C185.96 288.167 186.183 287.86 186.305 287.569C186.443 287.262 186.512 286.894 186.512 286.465C186.512 285.806 186.29 285.3 185.845 284.947C185.416 284.594 184.787 284.418 183.959 284.418C183.239 284.418 182.579 284.518 181.981 284.717C181.383 284.901 180.801 285.131 180.233 285.407L179.359 283.567C180.019 283.214 180.739 282.923 181.521 282.693C182.303 282.463 183.17 282.348 184.12 282.348C185.623 282.348 186.781 282.716 187.593 283.452C188.421 284.188 188.835 285.169 188.835 286.396C188.835 287.055 188.728 287.63 188.513 288.121C188.299 288.596 187.984 289.033 187.57 289.432C187.172 289.831 186.696 290.26 186.144 290.72C185.654 291.119 185.278 291.464 185.017 291.755C184.757 292.046 184.58 292.338 184.488 292.629C184.396 292.905 184.35 293.25 184.35 293.664V294.124H182.349V293.457ZM181.866 297.643C181.866 297.045 182.012 296.623 182.303 296.378C182.61 296.133 182.993 296.01 183.453 296.01C183.883 296.01 184.251 296.133 184.557 296.378C184.864 296.623 185.017 297.045 185.017 297.643C185.017 298.241 184.864 298.67 184.557 298.931C184.251 299.192 183.883 299.322 183.453 299.322C182.993 299.322 182.61 299.192 182.303 298.931C182.012 298.67 181.866 298.241 181.866 297.643Z" fill="black"/>
</svg>
