<svg width="666" height="666" viewBox="0 0 666 666" fill="none" xmlns="http://www.w3.org/2000/svg">
<rect width="666" height="666" fill="#5B5B62"/>
<rect width="665" height="666" fill="#5B5B62"/>
<rect width="666" height="110" fill="black" fill-opacity="0.11"/>
<rect x="14" y="232" width="54" height="54" rx="21" fill="#D9D9D9"/>
<rect x="84" y="263" width="121" height="55" rx="19" fill="#D9D9D9"/>
<path d="M76.8115 265.666C76.3418 264.89 77.0645 263.94 77.9376 264.185L93.6572 268.606C94.3329 268.796 94.6077 269.604 94.1877 270.167L86.9842 279.811C86.5597 280.379 85.695 280.337 85.3276 279.731L76.8115 265.666Z" fill="#D9D9D9"/>
<rect width="274" height="55" rx="19" transform="matrix(-1 0 0 1 649 150)" fill="#D9D9D9"/>
<path d="M653.659 152.763C653.97 151.928 653.115 151.135 652.305 151.506L643.411 155.583C642.909 155.813 642.688 156.407 642.918 156.909L646.994 165.805C647.365 166.615 648.531 166.572 648.841 165.736L653.659 152.763Z" fill="#D9D9D9"/>
<path d="M393.139 168.497H395.048V177.283H393.139V168.497ZM393.139 176.685H394.795C397.762 176.685 400.867 176.478 404.271 175.788L404.501 177.352C401.005 178.088 397.877 178.295 394.795 178.295H393.139V176.685ZM406.364 167.025H408.273V182.044H406.364V167.025ZM407.675 173.166H411.355V174.799H407.675V173.166ZM395.393 185.77H409.009V187.334H395.393V185.77ZM395.393 180.572H397.302V186.506H395.393V180.572ZM420.479 167.991H422.388V176.317H420.479V167.991ZM420.479 175.282H422.089C425.401 175.282 428.184 175.098 431.289 174.477L431.542 176.064C428.322 176.708 425.47 176.869 422.089 176.869H420.479V175.282ZM428.575 170.452H434.923V172.016H428.575V170.452ZM434.463 167.002H436.372V177.743H434.463V167.002ZM422.986 178.709H436.372V183.723H424.941V186.805H423.055V182.274H434.486V180.273H422.986V178.709ZM423.055 185.977H437.108V187.518H423.055V185.977ZM453.201 167.968C456.306 167.968 458.514 169.693 458.514 172.246C458.514 174.776 456.306 176.547 453.201 176.547C450.119 176.547 447.911 174.776 447.911 172.246C447.911 169.693 450.119 167.968 453.201 167.968ZM453.201 169.555C451.177 169.555 449.728 170.659 449.728 172.246C449.728 173.856 451.177 174.937 453.201 174.937C455.225 174.937 456.674 173.856 456.674 172.246C456.674 170.659 455.225 169.555 453.201 169.555ZM452.35 178.847H454.259V187.15H452.35V178.847ZM461.55 167.002H463.436V187.817H461.55V167.002ZM446.623 179.882L446.37 178.272C450.234 178.272 455.501 178.226 460.078 177.536L460.216 178.962C455.524 179.813 450.418 179.882 446.623 179.882ZM467.528 170.544H477.832V172.108H467.528V170.544ZM472.68 173.488C475.279 173.488 477.165 175.443 477.165 178.249C477.165 181.032 475.279 182.987 472.68 182.987C470.104 182.987 468.218 181.032 468.218 178.249C468.218 175.443 470.104 173.488 472.68 173.488ZM472.68 175.121C471.093 175.121 469.943 176.409 469.943 178.249C469.943 180.089 471.093 181.377 472.68 181.377C474.29 181.377 475.463 180.089 475.463 178.249C475.463 176.409 474.29 175.121 472.68 175.121ZM483.329 167.002H485.169V187.794H483.329V167.002ZM480.017 175.742H483.95V177.329H480.017V175.742ZM478.89 167.462H480.684V186.782H478.89V167.462ZM471.76 167.6H473.646V171.51H471.76V167.6ZM499.105 174.04H504.901V175.604H499.105V174.04ZM494.091 168.796H495.655V172.499C495.655 177.168 493.194 181.63 489.905 183.401L488.686 181.883C491.745 180.365 494.091 176.363 494.091 172.499V168.796ZM494.459 168.796H496V172.499C496 176.294 498.346 180.066 501.359 181.492L500.232 183.033C496.874 181.331 494.459 177.053 494.459 172.499V168.796ZM503.958 166.979H505.844V187.817H503.958V166.979ZM524.306 177.927H526.192V181.561H524.306V177.927ZM524.007 168.658H525.709V169.279C525.709 172.637 521.891 174.937 517.59 175.466L516.9 173.971C520.626 173.534 524.007 171.648 524.007 169.279V168.658ZM524.812 168.658H526.491V169.279C526.491 171.648 529.872 173.557 533.598 173.971L532.908 175.466C528.607 174.937 524.812 172.637 524.812 169.279V168.658ZM517.567 167.853H532.954V169.394H517.567V167.853ZM515.842 176.777H534.702V178.341H515.842V176.777ZM517.935 181.055H532.31V187.794H530.401V182.596H517.935V181.055ZM546.407 167.347C550.984 167.347 553.721 168.635 553.721 170.958C553.721 173.281 550.984 174.569 546.407 174.569C541.807 174.569 539.093 173.281 539.093 170.958C539.093 168.635 541.807 167.347 546.407 167.347ZM546.407 168.796C543.003 168.796 541.048 169.578 541.048 170.958C541.048 172.338 543.003 173.12 546.407 173.12C549.788 173.12 551.743 172.338 551.743 170.958C551.743 169.578 549.788 168.796 546.407 168.796ZM537 175.949H555.791V177.49H537V175.949ZM539.277 179.261H553.399V183.953H541.209V186.483H539.323V182.573H551.513V180.733H539.277V179.261ZM539.323 186.069H554.02V187.564H539.323V186.069ZM572.551 167.738H574.23V168.888C574.23 172.867 570.182 175.719 565.858 176.455L565.099 174.914C568.894 174.339 572.551 171.855 572.551 168.888V167.738ZM572.896 167.738H574.552V168.888C574.552 171.786 578.255 174.339 582.004 174.914L581.245 176.455C576.967 175.719 572.896 172.821 572.896 168.888V167.738ZM572.551 179.882H574.437V187.794H572.551V179.882ZM564.156 178.709H582.947V180.296H564.156V178.709ZM596.464 179.79H597.936V180.917C597.936 183.631 596.234 186.368 593.244 187.518L592.278 186.092C594.9 185.149 596.464 182.918 596.464 180.917V179.79ZM596.878 179.79H598.304V180.917C598.304 183.01 599.546 185.241 602.03 186.253L601.225 187.702C598.235 186.529 596.878 183.677 596.878 180.917V179.79ZM604.146 179.79H605.572V180.917C605.572 183.355 604.192 186.437 601.225 187.702L600.42 186.253C602.881 185.126 604.146 182.711 604.146 180.917V179.79ZM604.537 179.79H606.009V180.917C606.009 183.056 607.55 185.195 610.195 186.092L609.229 187.518C606.193 186.414 604.537 183.792 604.537 180.917V179.79ZM606.4 167.025H608.332V178.893H606.4V167.025ZM597.177 168.221C600.328 168.221 602.582 170.199 602.582 173.074C602.582 175.949 600.328 177.904 597.177 177.904C594.026 177.904 591.749 175.949 591.749 173.074C591.749 170.199 594.026 168.221 597.177 168.221ZM597.177 169.808C595.107 169.808 593.612 171.142 593.612 173.074C593.612 175.006 595.107 176.317 597.177 176.317C599.247 176.317 600.742 175.006 600.742 173.074C600.742 171.142 599.247 169.808 597.177 169.808ZM617.99 168.589C621.003 168.589 623.165 171.418 623.165 175.834C623.165 180.273 621.003 183.102 617.99 183.102C614.954 183.102 612.815 180.273 612.815 175.834C612.815 171.418 614.954 168.589 617.99 168.589ZM617.99 170.314C615.989 170.314 614.632 172.476 614.632 175.834C614.632 179.215 615.989 181.423 617.99 181.423C619.991 181.423 621.348 179.215 621.348 175.834C621.348 172.476 619.991 170.314 617.99 170.314ZM627.673 166.979H629.559V187.817H627.673V166.979ZM622.544 174.914H628.501V176.478H622.544V174.914Z" fill="black"/>
<path d="M101.174 282.21H114.56V283.751H101.174V282.21ZM99.15 296.171H117.941V297.758H99.15V296.171ZM113.548 282.21H115.411V284.28C115.411 286.948 115.411 289.915 114.629 294.4L112.72 294.216C113.548 289.961 113.548 286.856 113.548 284.28V282.21ZM123.827 293.365H137.397V300.518H123.827V293.365ZM135.534 294.883H125.69V298.977H135.534V294.883ZM135.488 280.025H137.397V292.215H135.488V280.025ZM131.624 284.648H136.109V286.212H131.624V284.648ZM121.159 289.823H122.746C126.265 289.823 128.887 289.731 132.038 289.225L132.199 290.789C128.956 291.295 126.334 291.387 122.746 291.387H121.159V289.823ZM121.113 281.06H130.336V286.856H123.045V290.973H121.159V285.384H128.45V282.601H121.113V281.06ZM155.882 290.927H157.768V294.561H155.882V290.927ZM155.583 281.658H157.285V282.279C157.285 285.637 153.467 287.937 149.166 288.466L148.476 286.971C152.202 286.534 155.583 284.648 155.583 282.279V281.658ZM156.388 281.658H158.067V282.279C158.067 284.648 161.448 286.557 165.174 286.971L164.484 288.466C160.183 287.937 156.388 285.637 156.388 282.279V281.658ZM149.143 280.853H164.53V282.394H149.143V280.853ZM147.418 289.777H166.278V291.341H147.418V289.777ZM149.511 294.055H163.886V300.794H161.977V295.596H149.511V294.055ZM174.142 281.589C177.155 281.589 179.317 284.418 179.317 288.834C179.317 293.273 177.155 296.102 174.142 296.102C171.106 296.102 168.967 293.273 168.967 288.834C168.967 284.418 171.106 281.589 174.142 281.589ZM174.142 283.314C172.141 283.314 170.784 285.476 170.784 288.834C170.784 292.215 172.141 294.423 174.142 294.423C176.143 294.423 177.5 292.215 177.5 288.834C177.5 285.476 176.143 283.314 174.142 283.314ZM183.825 279.979H185.711V300.817H183.825V279.979ZM178.696 287.914H184.653V289.478H178.696V287.914Z" fill="black"/>
<circle cx="41.5006" cy="251.786" r="5.78571" fill="#5B5B62"/>
<path d="M55 272.518C49.4554 272.518 48.9558 272.518 41.5 272.518C34.0442 272.518 36.4375 272.518 28 272.518C28 265.062 34.0442 259.018 41.5 259.018C48.9558 259.018 55 265.062 55 272.518Z" fill="#5B5B62"/>
<line x1="32.2929" y1="54.2929" x2="46.2929" y2="40.2929" stroke="white" stroke-width="2"/>
<line x1="33.7071" y1="54.2929" x2="47.7071" y2="68.2929" stroke="white" stroke-width="2"/>
<circle cx="553" cy="52" r="9" stroke="white" stroke-width="2"/>
<line x1="559.707" y1="58.2929" x2="568.707" y2="67.2929" stroke="white" stroke-width="2"/>
<line x1="602" y1="44" x2="631" y2="44" stroke="white" stroke-width="2"/>
<line x1="602" y1="54" x2="631" y2="54" stroke="white" stroke-width="2"/>
<line x1="602" y1="64" x2="631" y2="64" stroke="white" stroke-width="2"/>
</svg>
