<svg width="666" height="666" viewBox="0 0 666 666" fill="none" xmlns="http://www.w3.org/2000/svg">
<rect width="666" height="666" fill="#5B5B62"/>
<rect width="665" height="666" fill="#5B5B62"/>
<rect width="666" height="110" fill="black" fill-opacity="0.11"/>
<rect x="14" y="232" width="54" height="54" rx="21" fill="#D9D9D9"/>
<rect x="84" y="263" width="199" height="55" rx="19" fill="#D9D9D9"/>
<rect x="84" y="326" width="214" height="55" rx="19" fill="#D9D9D9"/>
<rect x="84" y="389" width="207" height="55" rx="19" fill="#D9D9D9"/>
<path d="M116.606 351.282H120.447V352.892H116.606V351.282ZM115.203 342.979H117.135V363.794H115.203V342.979ZM101.955 345.026H103.864V357.906H101.955V345.026ZM101.955 356.917H103.611C106.693 356.917 109.844 356.71 113.271 355.997L113.501 357.584C109.959 358.32 106.762 358.527 103.611 358.527H101.955V356.917ZM136.522 343.002H138.431V355.56H136.522V343.002ZM137.856 348.2H141.513V349.787H137.856V348.2ZM123.205 352.8H124.838C128.61 352.8 131.301 352.685 134.544 352.11L134.705 353.697C131.416 354.249 128.679 354.387 124.838 354.387H123.205V352.8ZM123.159 344.29H132.52V349.948H125.068V353.812H123.205V348.453H130.634V345.854H123.159V344.29ZM131.784 356.204C136.039 356.204 138.615 357.584 138.615 359.976C138.615 362.391 136.039 363.771 131.784 363.771C127.552 363.771 124.953 362.391 124.953 359.976C124.953 357.584 127.552 356.204 131.784 356.204ZM131.784 357.699C128.679 357.699 126.816 358.527 126.816 359.976C126.816 361.448 128.679 362.276 131.784 362.276C134.889 362.276 136.775 361.448 136.775 359.976C136.775 358.527 134.889 357.699 131.784 357.699ZM157.859 354.755H159.768V359.93H157.859V354.755ZM158.825 344.359C163.218 344.359 166.369 346.498 166.369 349.81C166.369 353.122 163.218 355.261 158.825 355.261C154.432 355.261 151.258 353.122 151.258 349.81C151.258 346.498 154.432 344.359 158.825 344.359ZM158.825 345.877C155.513 345.877 153.098 347.441 153.098 349.81C153.098 352.179 155.513 353.743 158.825 353.743C162.114 353.743 164.529 352.179 164.529 349.81C164.529 347.441 162.114 345.877 158.825 345.877ZM149.441 359.562H168.278V361.149H149.441V359.562ZM171.266 357.239H172.646C175.176 357.239 177.476 357.147 180.282 356.664L180.443 358.251C177.568 358.757 175.222 358.826 172.646 358.826H171.266V357.239ZM171.22 345.256H179.017V352.57H173.129V357.837H171.266V351.006H177.154V346.82H171.22V345.256ZM186.4 343.002H188.24V363.794H186.4V343.002ZM182.881 351.213H186.883V352.777H182.881V351.213ZM181.685 343.462H183.479V362.736H181.685V343.462ZM202.792 343.692H204.356V345.348C204.356 349.258 202.079 352.386 198.537 353.628L197.594 352.087C200.745 351.052 202.792 348.43 202.792 345.348V343.692ZM203.137 343.692H204.678V345.302C204.678 348.108 206.725 350.546 209.784 351.512L208.795 353.007C205.391 351.834 203.137 348.936 203.137 345.302V343.692ZM211.946 343.002H213.855V353.835H211.946V343.002ZM213.027 347.533H216.914V349.12H213.027V347.533ZM200.653 354.801H213.855V359.792H202.585V362.897H200.699V358.343H211.992V356.319H200.653V354.801ZM200.699 362.046H214.614V363.564H200.699V362.046ZM224.41 344.589C227.469 344.589 229.631 347.418 229.631 351.834C229.631 356.273 227.469 359.102 224.41 359.102C221.351 359.102 219.189 356.273 219.189 351.834C219.189 347.418 221.351 344.589 224.41 344.589ZM224.41 346.314C222.386 346.314 221.006 348.476 221.006 351.834C221.006 355.215 222.386 357.423 224.41 357.423C226.411 357.423 227.814 355.215 227.814 351.834C227.814 348.476 226.411 346.314 224.41 346.314ZM232.943 343.002H234.875V363.794H232.943V343.002ZM234.415 351.305H238.279V352.915H234.415V351.305ZM245.568 344.589C248.627 344.589 250.789 347.418 250.789 351.834C250.789 356.273 248.627 359.102 245.568 359.102C242.509 359.102 240.347 356.273 240.347 351.834C240.347 347.418 242.509 344.589 245.568 344.589ZM245.568 346.314C243.544 346.314 242.164 348.476 242.164 351.834C242.164 355.215 243.544 357.423 245.568 357.423C247.569 357.423 248.972 355.215 248.972 351.834C248.972 348.476 247.569 346.314 245.568 346.314ZM255.504 348.223H259.322V349.833H255.504V348.223ZM255.504 354.41H259.322V356.02H255.504V354.41ZM254.101 343.002H256.033V363.794H254.101V343.002ZM266.704 345.969H268.245V349.35C268.245 353.743 265.6 358.159 262.288 359.792L261.184 358.274C264.197 356.848 266.704 352.938 266.704 349.35V345.969ZM267.072 345.969H268.613V349.35C268.613 352.869 271.12 356.457 274.179 357.768L273.098 359.286C269.74 357.722 267.072 353.674 267.072 349.35V345.969ZM261.874 345.118H273.489V346.728H261.874V345.118ZM276.295 343.002H278.204V363.794H276.295V343.002Z" fill="black"/>
<path d="M100.92 418.698C100.92 417.441 101.035 416.214 101.265 415.018C101.51 413.822 101.886 412.68 102.392 411.591C102.898 410.502 103.534 409.498 104.301 408.578H106.486C105.781 409.529 105.183 410.556 104.692 411.66C104.217 412.764 103.856 413.906 103.611 415.087C103.366 416.268 103.243 417.464 103.243 418.675C103.243 419.856 103.366 421.029 103.611 422.194C103.856 423.359 104.217 424.479 104.692 425.552C105.167 426.641 105.758 427.668 106.463 428.634H104.301C103.534 427.729 102.898 426.74 102.392 425.667C101.886 424.609 101.51 423.49 101.265 422.309C101.035 421.128 100.92 419.925 100.92 418.698ZM124.116 406.002H125.956V426.794H124.116V406.002ZM120.597 414.328H124.599V415.915H120.597V414.328ZM119.401 406.462H121.195V425.736H119.401V406.462ZM109.051 420.078H110.408C113.444 420.078 115.514 419.963 117.929 419.457L118.113 421.044C115.629 421.573 113.536 421.665 110.408 421.665H109.051V420.078ZM109.051 408.532H116.779V410.096H110.937V420.791H109.051V408.532ZM137.914 417.272H139.777V420.4H137.914V417.272ZM129.45 416.26H148.241V417.801H129.45V416.26ZM137.914 405.933H139.8V408.739H137.914V405.933ZM137.822 408.969H139.501V409.314C139.501 412.718 135.683 414.696 131.129 415.156L130.554 413.684C134.579 413.339 137.822 411.683 137.822 409.314V408.969ZM138.213 408.969H139.892V409.314C139.892 411.683 143.135 413.339 147.16 413.684L146.585 415.156C142.031 414.696 138.213 412.718 138.213 409.314V408.969ZM131.382 408.026H146.332V409.544H131.382V408.026ZM138.834 419.871C143.319 419.871 145.964 421.09 145.964 423.321C145.964 425.552 143.319 426.748 138.834 426.748C134.349 426.748 131.704 425.552 131.704 423.321C131.704 421.09 134.349 419.871 138.834 419.871ZM138.834 421.32C135.545 421.32 133.636 422.01 133.636 423.321C133.636 424.586 135.545 425.299 138.834 425.299C142.123 425.299 144.032 424.586 144.032 423.321C144.032 422.01 142.123 421.32 138.834 421.32ZM158.331 406.623H173.603V408.118H158.331V406.623ZM158.423 412.074H173.511V413.546H158.423V412.074ZM161.482 407.198H163.391V413.04H161.482V407.198ZM168.566 407.198H170.452V413.04H168.566V407.198ZM156.583 415.271H175.374V416.812H156.583V415.271ZM158.86 418.629H172.982V423.183H160.792V425.69H158.906V421.826H171.096V420.055H158.86V418.629ZM158.906 425.115H173.603V426.564H158.906V425.115ZM192.944 405.979H194.853V426.817H192.944V405.979ZM188.988 413.983H193.404V415.547H188.988V413.983ZM178.523 420.239H180.11C183.79 420.239 186.389 420.124 189.448 419.572L189.632 421.159C186.504 421.711 183.859 421.849 180.11 421.849H178.523V420.239ZM178.477 407.934H187.769V415.225H180.409V420.722H178.523V413.661H185.883V409.498H178.477V407.934ZM200.118 415.869H201.797C206.282 415.869 208.743 415.777 211.664 415.294L211.871 416.812C208.858 417.341 206.328 417.41 201.797 417.41H200.118V415.869ZM200.118 407.52H210.008V409.061H202.004V416.651H200.118V407.52ZM201.383 411.637H209.433V413.155H201.383V411.637ZM214.033 406.025H215.965V418.882H214.033V406.025ZM209.088 419.181C213.412 419.181 216.057 420.561 216.057 422.953C216.057 425.368 213.412 426.748 209.088 426.748C204.741 426.748 202.096 425.368 202.096 422.953C202.096 420.561 204.741 419.181 209.088 419.181ZM209.088 420.699C205.914 420.699 204.005 421.527 204.005 422.953C204.005 424.425 205.914 425.253 209.088 425.253C212.239 425.253 214.148 424.425 214.148 422.953C214.148 421.527 212.239 420.699 209.088 420.699ZM226.032 416.628H244.869V418.192H226.032V416.628ZM234.634 417.594H236.543V422.378H234.634V417.594ZM228.447 406.968H242.431V414.282H228.447V406.968ZM240.545 408.509H230.31V412.741H240.545V408.509ZM228.424 424.77H242.776V426.334H228.424V424.77ZM228.424 420.377H230.31V425.322H228.424V420.377ZM249.559 407.359H262.554V408.9H249.559V407.359ZM247.213 416.283H266.004V417.847H247.213V416.283ZM255.608 417.318H257.517V426.817H255.608V417.318ZM261.657 407.359H263.52V409.153C263.52 411.315 263.52 413.753 262.738 417.272L260.852 417.019C261.657 413.661 261.657 411.246 261.657 409.153V407.359ZM273.478 418.698C273.478 419.925 273.355 421.128 273.11 422.309C272.88 423.49 272.512 424.609 272.006 425.667C271.515 426.74 270.879 427.729 270.097 428.634H267.935C268.64 427.668 269.23 426.641 269.706 425.552C270.181 424.479 270.534 423.359 270.764 422.194C271.009 421.029 271.132 419.856 271.132 418.675C271.132 417.464 271.009 416.268 270.764 415.087C270.534 413.906 270.181 412.764 269.706 411.66C269.23 410.556 268.632 409.529 267.912 408.578H270.097C270.879 409.498 271.515 410.502 272.006 411.591C272.512 412.68 272.88 413.822 273.11 415.018C273.355 416.214 273.478 417.441 273.478 418.698Z" fill="black"/>
<path d="M76.8115 265.666C76.3418 264.89 77.0645 263.94 77.9376 264.185L93.6572 268.606C94.3329 268.796 94.6077 269.604 94.1877 270.167L86.9842 279.811C86.5597 280.379 85.695 280.337 85.3276 279.731L76.8115 265.666Z" fill="#D9D9D9"/>
<rect width="274" height="55" rx="19" transform="matrix(-1 0 0 1 649 150)" fill="#D9D9D9"/>
<path d="M653.659 152.763C653.97 151.928 653.115 151.135 652.305 151.506L643.411 155.583C642.909 155.813 642.688 156.407 642.918 156.909L646.994 165.805C647.365 166.615 648.531 166.572 648.841 165.736L653.659 152.763Z" fill="#D9D9D9"/>
<path d="M393.139 168.497H395.048V177.283H393.139V168.497ZM393.139 176.685H394.795C397.762 176.685 400.867 176.478 404.271 175.788L404.501 177.352C401.005 178.088 397.877 178.295 394.795 178.295H393.139V176.685ZM406.364 167.025H408.273V182.044H406.364V167.025ZM407.675 173.166H411.355V174.799H407.675V173.166ZM395.393 185.77H409.009V187.334H395.393V185.77ZM395.393 180.572H397.302V186.506H395.393V180.572ZM420.479 167.991H422.388V176.317H420.479V167.991ZM420.479 175.282H422.089C425.401 175.282 428.184 175.098 431.289 174.477L431.542 176.064C428.322 176.708 425.47 176.869 422.089 176.869H420.479V175.282ZM428.575 170.452H434.923V172.016H428.575V170.452ZM434.463 167.002H436.372V177.743H434.463V167.002ZM422.986 178.709H436.372V183.723H424.941V186.805H423.055V182.274H434.486V180.273H422.986V178.709ZM423.055 185.977H437.108V187.518H423.055V185.977ZM453.201 167.968C456.306 167.968 458.514 169.693 458.514 172.246C458.514 174.776 456.306 176.547 453.201 176.547C450.119 176.547 447.911 174.776 447.911 172.246C447.911 169.693 450.119 167.968 453.201 167.968ZM453.201 169.555C451.177 169.555 449.728 170.659 449.728 172.246C449.728 173.856 451.177 174.937 453.201 174.937C455.225 174.937 456.674 173.856 456.674 172.246C456.674 170.659 455.225 169.555 453.201 169.555ZM452.35 178.847H454.259V187.15H452.35V178.847ZM461.55 167.002H463.436V187.817H461.55V167.002ZM446.623 179.882L446.37 178.272C450.234 178.272 455.501 178.226 460.078 177.536L460.216 178.962C455.524 179.813 450.418 179.882 446.623 179.882ZM467.528 170.544H477.832V172.108H467.528V170.544ZM472.68 173.488C475.279 173.488 477.165 175.443 477.165 178.249C477.165 181.032 475.279 182.987 472.68 182.987C470.104 182.987 468.218 181.032 468.218 178.249C468.218 175.443 470.104 173.488 472.68 173.488ZM472.68 175.121C471.093 175.121 469.943 176.409 469.943 178.249C469.943 180.089 471.093 181.377 472.68 181.377C474.29 181.377 475.463 180.089 475.463 178.249C475.463 176.409 474.29 175.121 472.68 175.121ZM483.329 167.002H485.169V187.794H483.329V167.002ZM480.017 175.742H483.95V177.329H480.017V175.742ZM478.89 167.462H480.684V186.782H478.89V167.462ZM471.76 167.6H473.646V171.51H471.76V167.6ZM499.105 174.04H504.901V175.604H499.105V174.04ZM494.091 168.796H495.655V172.499C495.655 177.168 493.194 181.63 489.905 183.401L488.686 181.883C491.745 180.365 494.091 176.363 494.091 172.499V168.796ZM494.459 168.796H496V172.499C496 176.294 498.346 180.066 501.359 181.492L500.232 183.033C496.874 181.331 494.459 177.053 494.459 172.499V168.796ZM503.958 166.979H505.844V187.817H503.958V166.979ZM524.306 177.927H526.192V181.561H524.306V177.927ZM524.007 168.658H525.709V169.279C525.709 172.637 521.891 174.937 517.59 175.466L516.9 173.971C520.626 173.534 524.007 171.648 524.007 169.279V168.658ZM524.812 168.658H526.491V169.279C526.491 171.648 529.872 173.557 533.598 173.971L532.908 175.466C528.607 174.937 524.812 172.637 524.812 169.279V168.658ZM517.567 167.853H532.954V169.394H517.567V167.853ZM515.842 176.777H534.702V178.341H515.842V176.777ZM517.935 181.055H532.31V187.794H530.401V182.596H517.935V181.055ZM546.407 167.347C550.984 167.347 553.721 168.635 553.721 170.958C553.721 173.281 550.984 174.569 546.407 174.569C541.807 174.569 539.093 173.281 539.093 170.958C539.093 168.635 541.807 167.347 546.407 167.347ZM546.407 168.796C543.003 168.796 541.048 169.578 541.048 170.958C541.048 172.338 543.003 173.12 546.407 173.12C549.788 173.12 551.743 172.338 551.743 170.958C551.743 169.578 549.788 168.796 546.407 168.796ZM537 175.949H555.791V177.49H537V175.949ZM539.277 179.261H553.399V183.953H541.209V186.483H539.323V182.573H551.513V180.733H539.277V179.261ZM539.323 186.069H554.02V187.564H539.323V186.069ZM572.551 167.738H574.23V168.888C574.23 172.867 570.182 175.719 565.858 176.455L565.099 174.914C568.894 174.339 572.551 171.855 572.551 168.888V167.738ZM572.896 167.738H574.552V168.888C574.552 171.786 578.255 174.339 582.004 174.914L581.245 176.455C576.967 175.719 572.896 172.821 572.896 168.888V167.738ZM572.551 179.882H574.437V187.794H572.551V179.882ZM564.156 178.709H582.947V180.296H564.156V178.709ZM596.464 179.79H597.936V180.917C597.936 183.631 596.234 186.368 593.244 187.518L592.278 186.092C594.9 185.149 596.464 182.918 596.464 180.917V179.79ZM596.878 179.79H598.304V180.917C598.304 183.01 599.546 185.241 602.03 186.253L601.225 187.702C598.235 186.529 596.878 183.677 596.878 180.917V179.79ZM604.146 179.79H605.572V180.917C605.572 183.355 604.192 186.437 601.225 187.702L600.42 186.253C602.881 185.126 604.146 182.711 604.146 180.917V179.79ZM604.537 179.79H606.009V180.917C606.009 183.056 607.55 185.195 610.195 186.092L609.229 187.518C606.193 186.414 604.537 183.792 604.537 180.917V179.79ZM606.4 167.025H608.332V178.893H606.4V167.025ZM597.177 168.221C600.328 168.221 602.582 170.199 602.582 173.074C602.582 175.949 600.328 177.904 597.177 177.904C594.026 177.904 591.749 175.949 591.749 173.074C591.749 170.199 594.026 168.221 597.177 168.221ZM597.177 169.808C595.107 169.808 593.612 171.142 593.612 173.074C593.612 175.006 595.107 176.317 597.177 176.317C599.247 176.317 600.742 175.006 600.742 173.074C600.742 171.142 599.247 169.808 597.177 169.808ZM617.99 168.589C621.003 168.589 623.165 171.418 623.165 175.834C623.165 180.273 621.003 183.102 617.99 183.102C614.954 183.102 612.815 180.273 612.815 175.834C612.815 171.418 614.954 168.589 617.99 168.589ZM617.99 170.314C615.989 170.314 614.632 172.476 614.632 175.834C614.632 179.215 615.989 181.423 617.99 181.423C619.991 181.423 621.348 179.215 621.348 175.834C621.348 172.476 619.991 170.314 617.99 170.314ZM627.673 166.979H629.559V187.817H627.673V166.979ZM622.544 174.914H628.501V176.478H622.544V174.914Z" fill="black"/>
<path d="M109.591 290.927H111.477V294.561H109.591V290.927ZM109.292 281.658H110.994V282.279C110.994 285.637 107.176 287.937 102.875 288.466L102.185 286.971C105.911 286.534 109.292 284.648 109.292 282.279V281.658ZM110.097 281.658H111.776V282.279C111.776 284.648 115.157 286.557 118.883 286.971L118.193 288.466C113.892 287.937 110.097 285.637 110.097 282.279V281.658ZM102.852 280.853H118.239V282.394H102.852V280.853ZM101.127 289.777H119.987V291.341H101.127V289.777ZM103.22 294.055H117.595V300.794H115.686V295.596H103.22V294.055ZM137.419 280.002H139.328V295.113H137.419V280.002ZM131.301 281.566H133.302C133.302 286.971 129.507 290.973 123.412 292.882L122.63 291.318C127.989 289.685 131.301 286.442 131.301 282.371V281.566ZM123.734 281.566H132.382V283.153H123.734V281.566ZM125.85 298.77H139.857V300.357H125.85V298.77ZM125.85 293.894H127.759V299.345H125.85V293.894ZM153.627 290.398H155.421V294.768H153.627V290.398ZM149.441 295.918L149.165 294.331C152.04 294.331 156.594 294.262 159.86 293.825L159.998 295.228C156.617 295.826 152.201 295.918 149.441 295.918ZM165.081 280.002H166.921V300.794H165.081V280.002ZM161.93 288.65H165.679V290.214H161.93V288.65ZM160.803 280.439H162.597V299.69H160.803V280.439ZM154.524 281.98C157.284 281.98 159.262 283.774 159.262 286.396C159.262 289.041 157.284 290.835 154.524 290.835C151.764 290.835 149.786 289.041 149.786 286.396C149.786 283.774 151.764 281.98 154.524 281.98ZM154.524 283.521C152.776 283.521 151.534 284.717 151.534 286.396C151.534 288.098 152.776 289.271 154.524 289.271C156.249 289.271 157.491 288.098 157.491 286.396C157.491 284.717 156.249 283.521 154.524 283.521ZM185.015 290.927H186.901V294.561H185.015V290.927ZM184.716 281.658H186.418V282.279C186.418 285.637 182.6 287.937 178.299 288.466L177.609 286.971C181.335 286.534 184.716 284.648 184.716 282.279V281.658ZM185.521 281.658H187.2V282.279C187.2 284.648 190.581 286.557 194.307 286.971L193.617 288.466C189.316 287.937 185.521 285.637 185.521 282.279V281.658ZM178.276 280.853H193.663V282.394H178.276V280.853ZM176.551 289.777H195.411V291.341H176.551V289.777ZM178.644 294.055H193.019V300.794H191.11V295.596H178.644V294.055ZM203.275 281.589C206.288 281.589 208.45 284.418 208.45 288.834C208.45 293.273 206.288 296.102 203.275 296.102C200.239 296.102 198.1 293.273 198.1 288.834C198.1 284.418 200.239 281.589 203.275 281.589ZM203.275 283.314C201.274 283.314 199.917 285.476 199.917 288.834C199.917 292.215 201.274 294.423 203.275 294.423C205.276 294.423 206.633 292.215 206.633 288.834C206.633 285.476 205.276 283.314 203.275 283.314ZM212.958 279.979H214.844V300.817H212.958V279.979ZM207.829 287.914H213.786V289.478H207.829V287.914ZM225.026 287.063H243.748V288.65H225.026V287.063ZM233.421 288.075H235.33V297.551H233.421V288.075ZM246.184 287.063H264.906V288.65H246.184V287.063ZM254.579 288.075H256.488V297.551H254.579V288.075Z" fill="black"/>
</svg>
